<svg width="469" height="383" viewBox="0 0 469 383" fill="none" xmlns="http://www.w3.org/2000/svg">
<path d="M263.105 147.242C263.105 147.242 256.312 191.714 257.444 230.672C258.577 269.63 265.37 340.221 265.37 340.221H284.005C284.005 340.221 282.205 254.391 283.677 232.37C285.149 210.349 299.199 146.325 299.199 146.325L263.105 147.242Z" fill="#407BFF"/>
<path opacity="0.6" d="M263.105 147.242C263.105 147.242 256.312 191.714 257.444 230.672C258.577 269.63 265.37 340.221 265.37 340.221H284.005C284.005 340.221 282.205 254.391 283.677 232.37C285.149 210.349 299.199 146.325 299.199 146.325L263.105 147.242Z" fill="black"/>
<path opacity="0.4" d="M290.323 161.598L287.096 160.183C287.096 160.183 279.42 202.277 283.971 228.77C285.387 214.923 290.006 190.627 293.799 171.98L290.323 161.598Z" fill="black"/>
<path d="M278.367 342.293L278.729 353.728L270.872 353.909L269.932 341.67L278.367 342.293Z" fill="#FFC3BD"/>
<path opacity="0.1" d="M270.408 347.784H278.537L278.367 342.293L273.295 341.908H269.955L270.408 347.784Z" fill="black"/>
<path d="M266.366 354.498C265.417 354.573 264.473 354.295 263.717 353.717C263.629 353.575 263.587 353.41 263.597 353.244C263.607 353.077 263.669 352.918 263.773 352.788C263.85 352.667 263.951 352.562 264.07 352.48C264.188 352.398 264.323 352.341 264.464 352.313C265.992 351.939 269.094 353.864 269.23 353.943C269.268 353.966 269.297 354.001 269.313 354.041C269.33 354.082 269.332 354.127 269.321 354.17C269.312 354.213 269.29 354.253 269.257 354.283C269.225 354.314 269.184 354.333 269.14 354.34C268.222 354.477 267.293 354.53 266.366 354.498ZM264.985 352.687C264.846 352.669 264.705 352.669 264.566 352.687C264.477 352.697 264.392 352.728 264.317 352.777C264.243 352.827 264.18 352.892 264.136 352.97C263.966 353.23 264.022 353.366 264.079 353.434C264.475 354.045 266.762 354.136 268.46 353.989C267.397 353.327 266.217 352.874 264.985 352.653V352.687Z" fill="#407BFF"/>
<path d="M269.14 354.339H269.06C267.985 353.819 265.879 351.781 266.106 350.762C266.106 350.524 266.332 350.23 266.921 350.184C267.355 350.161 267.781 350.307 268.109 350.592C269.242 351.588 269.389 353.988 269.4 354.158C269.4 354.19 269.392 354.22 269.378 354.248C269.363 354.276 269.343 354.3 269.318 354.319C269.292 354.337 269.263 354.35 269.232 354.356C269.202 354.361 269.17 354.359 269.14 354.351V354.339ZM267.057 350.592H266.932C266.547 350.592 266.513 350.773 266.49 350.83C266.423 351.441 267.792 353.026 268.891 353.728C268.812 352.694 268.417 351.71 267.758 350.909C267.557 350.725 267.295 350.621 267.023 350.615L267.057 350.592Z" fill="#407BFF"/>
<path d="M270.113 353.105L280.009 353.445C280.19 353.45 280.364 353.516 280.502 353.634C280.64 353.751 280.733 353.912 280.767 354.09L282.273 362.208C282.307 362.378 282.308 362.554 282.274 362.724C282.24 362.895 282.173 363.057 282.076 363.201C281.979 363.346 281.855 363.469 281.71 363.565C281.565 363.661 281.402 363.727 281.231 363.759C281.137 363.77 281.042 363.77 280.948 363.759C277.382 363.578 274.212 363.272 269.774 363.125C264.532 362.944 265.845 363.612 259.675 363.488C255.961 363.408 255.429 359.174 257.014 359.015C264.249 358.359 265.075 356.208 267.94 353.728C268.564 353.262 269.337 353.041 270.113 353.105Z" fill="#263238"/>
<path d="M263.139 339.089L264.271 344.739H285.16V339.089H263.139Z" fill="#407BFF"/>
<path d="M327.594 338.897L329.077 353.728L321.231 353.909L319.159 340.538L327.594 338.897Z" fill="#FFC3BD"/>
<path d="M316.691 354.498C315.745 354.574 314.805 354.295 314.053 353.717C313.957 353.581 313.906 353.419 313.906 353.253C313.906 353.086 313.957 352.924 314.053 352.788C314.13 352.667 314.231 352.562 314.35 352.48C314.468 352.398 314.603 352.341 314.744 352.313C316.272 351.939 319.374 353.864 319.51 353.943C319.547 353.967 319.577 354.001 319.595 354.041C319.613 354.082 319.619 354.126 319.612 354.17C319.603 354.213 319.581 354.253 319.549 354.283C319.516 354.314 319.475 354.333 319.431 354.34C318.524 354.474 317.607 354.527 316.691 354.498ZM315.333 352.653C315.197 352.636 315.06 352.636 314.925 352.653C314.836 352.663 314.751 352.694 314.677 352.744C314.602 352.793 314.54 352.858 314.495 352.936C314.325 353.196 314.37 353.332 314.427 353.4C314.834 354.011 317.121 354.102 318.808 353.955C317.742 353.305 316.563 352.863 315.333 352.653Z" fill="#407BFF"/>
<path d="M319.465 354.34H319.374C318.31 353.819 316.193 351.781 316.42 350.762C316.42 350.524 316.646 350.23 317.246 350.184C317.661 350.173 318.065 350.319 318.378 350.592C319.51 351.588 319.658 353.989 319.669 354.158C319.67 354.195 319.661 354.231 319.643 354.263C319.625 354.295 319.599 354.321 319.567 354.34C319.533 354.347 319.499 354.347 319.465 354.34ZM317.371 350.592H317.246C316.861 350.592 316.838 350.773 316.816 350.83C316.737 351.441 318.118 353.026 319.216 353.728C319.132 352.696 318.737 351.713 318.084 350.909C317.882 350.725 317.621 350.621 317.348 350.615L317.371 350.592Z" fill="#407BFF"/>
<path d="M320.461 353.105L330.356 353.445C330.538 353.45 330.712 353.516 330.85 353.634C330.988 353.751 331.081 353.912 331.115 354.09L332.632 362.208C332.695 362.553 332.62 362.909 332.423 363.199C332.226 363.49 331.923 363.691 331.579 363.759C331.485 363.771 331.39 363.771 331.296 363.759C327.73 363.578 324.571 363.272 320.133 363.125C314.891 362.944 316.193 363.612 310.034 363.487C306.32 363.408 305.788 359.174 307.362 359.015C314.597 358.359 315.423 356.208 318.287 353.728C318.912 353.263 319.685 353.042 320.461 353.105Z" fill="#263238"/>
<path opacity="0.1" d="M320.11 346.709L328.296 345.928L327.821 341.229L319.386 342.044L320.11 346.709Z" fill="black"/>
<path d="M285.805 146.053C285.805 146.053 286.598 201.666 295.18 243.273C303.762 284.881 314.348 340.199 314.348 340.199L331.987 337.934C331.987 337.934 326.167 276.955 320.608 230.649C315.05 184.343 312.796 142.838 312.796 142.838L285.805 146.053Z" fill="#407BFF"/>
<path opacity="0.6" d="M285.805 146.053C285.805 146.053 286.598 201.666 295.18 243.273C303.762 284.881 314.348 340.199 314.348 340.199L331.987 337.934C331.987 337.934 326.167 276.955 320.608 230.649C315.05 184.343 312.796 142.838 312.796 142.838L285.805 146.053Z" fill="black"/>
<path d="M312.423 339.236L314.133 344.739L334.908 342.542L334.319 336.927L312.423 339.236Z" fill="#407BFF"/>
<path d="M294.953 68.3407C289.872 68.4216 284.812 69.0133 279.85 70.1069C278.412 73.6167 275.853 79.8889 275.208 81.8815C274.302 84.7006 274.846 91.6975 273.295 92.0145C271.744 92.3315 268.426 88.618 265.743 83.7157C264.485 81.4886 262.763 79.558 260.694 78.0548C249.27 85.5611 245.296 94.6864 245.296 94.6864C260.456 114.726 261.95 155.099 261.95 155.099C297.297 158.394 314.347 149.552 314.347 149.552C307.396 120.557 301.973 84.9384 300.173 72.7109C299.988 71.4702 299.354 70.3404 298.393 69.5351C297.431 68.7297 296.207 68.3049 294.953 68.3407Z" fill="#407BFF"/>
<g opacity="0.7">
<path opacity="0.7" d="M294.953 68.3407C289.872 68.4216 284.812 69.0133 279.85 70.1069C278.412 73.6167 275.853 79.8889 275.208 81.8815C274.302 84.7006 274.846 91.6975 273.295 92.0145C271.744 92.3315 268.426 88.618 265.743 83.7157C264.485 81.4886 262.763 79.558 260.694 78.0548C249.27 85.5611 245.296 94.6864 245.296 94.6864C260.456 114.726 261.95 155.099 261.95 155.099C297.297 158.394 314.347 149.552 314.347 149.552C307.396 120.557 301.973 84.9384 300.173 72.7109C299.988 71.4702 299.354 70.3404 298.393 69.5351C297.431 68.7297 296.207 68.3049 294.953 68.3407Z" fill="white"/>
<path opacity="0.1" d="M253.029 98.6265C253.029 98.6265 258.554 100.359 263.354 110.311C274.416 133.226 261.418 131.063 261.418 131.063C261.418 131.063 255.859 105.487 253.029 98.6265Z" fill="black"/>
<path opacity="0.1" d="M303.977 96.9848C302.946 90.7918 302.063 85.2442 301.373 80.6928L300.24 80.1833L295.87 81.3155C297.945 86.8399 300.666 92.0995 303.977 96.9848Z" fill="black"/>
</g>
<path d="M319.057 72.1221C319.057 72.1221 343.965 76.6508 348.132 80.4549C352.298 84.259 363.19 101.536 366.948 106.993C370.707 112.45 371.738 126.319 364.831 125.787C357.925 125.255 360.778 116.028 360.778 116.028C359.202 113.491 358.414 110.544 358.514 107.559C358.514 107.559 349.671 98.7056 341.384 89.2972L319.612 84.4062L319.057 72.1221Z" fill="#FFC3BD"/>
<path d="M295.463 72.122C295.463 72.122 297.161 64.2647 317.371 69.4387C317.881 75.2812 318.097 81.1458 318.016 87.0101C318.016 87.0101 297.874 89.4329 296.176 82.4814C294.478 75.5298 295.463 72.122 295.463 72.122Z" fill="#407BFF"/>
<path opacity="0.7" d="M295.463 72.122C295.463 72.122 297.161 64.2647 317.371 69.4387C317.881 75.2812 318.097 81.1458 318.016 87.0101C318.016 87.0101 297.874 89.4329 296.176 82.4814C294.478 75.5298 295.463 72.122 295.463 72.122Z" fill="white"/>
<path d="M316.035 68.3181C316.035 68.3181 317.167 73.2997 317.371 88.1652H321.741C321.741 88.1652 323.088 76.4132 320.359 68.3181H316.035Z" fill="#407BFF"/>
<path d="M278.39 41.0551C279.403 42.1155 280.641 42.9362 282.012 43.4572C283.383 43.9782 284.853 44.1865 286.315 44.0667C284.957 45.0348 283.361 45.6165 281.698 45.7501C280.036 45.8837 278.368 45.5641 276.873 44.8252C276.873 44.8252 274.325 40.4324 278.39 41.0551Z" fill="#263238"/>
<path d="M261.373 79.0509C262.041 73.1296 260.433 68.9519 260.241 61.7739L273.567 56.6338C274.699 63.4268 275.061 71.8049 280.88 73.1409C280.88 73.1409 276.805 76.277 275.706 79.934C274.167 85.108 275.197 91.4142 272.729 91.9237C268.472 92.8408 264.249 79.7981 261.373 79.0509Z" fill="#FFC3BD"/>
<path opacity="0.2" d="M275.355 66.6875C275.757 68.2165 276.449 69.6541 277.393 70.9218C270.77 74.5222 265.834 72.405 262.551 68.816C266.707 67.5495 271.012 66.8339 275.355 66.6875Z" fill="black"/>
<path d="M254.806 49.7955C255.995 58.9322 256.199 64.3327 261.169 68.6915C268.619 75.2355 279.658 70.1747 281.231 60.8569C282.647 52.4675 280.484 38.9493 271.257 35.949C269.214 35.2904 267.037 35.1612 264.93 35.5736C262.824 35.9859 260.856 36.9263 259.212 38.3066C257.568 39.687 256.302 41.462 255.531 43.4655C254.761 45.469 254.511 47.6354 254.806 49.7616V49.7955Z" fill="#FFC3BD"/>
<path d="M255.474 57.9925C255.474 57.9925 264.226 56.215 258.871 46.2406C258.871 46.2406 264.43 46.082 266.355 42.1081C266.355 42.1081 280.801 45.5046 284.096 40.1155L280.156 39.572C280.156 39.572 286.79 38.6097 284.832 33.1526C283.959 34.0105 282.905 34.6598 281.746 35.0519C280.587 35.4441 279.354 35.5689 278.141 35.417C278.141 35.417 283.371 30.2769 277.608 28.488C277.608 28.488 274.812 32.7337 262.562 31.9751C250.312 31.2166 247.685 38.2814 248.613 41.576L249.078 43.1837C249.078 43.1837 244.549 50.4409 250.674 54.947C256.799 59.453 255.474 57.9925 255.474 57.9925Z" fill="#263238"/>
<path d="M249.066 43.1383C249.066 43.1383 245.115 42.1533 245.455 38.6775H245.364C244.99 40.0135 244.039 44.8139 249.802 44.3384L249.066 43.1383Z" fill="#263238"/>
<path d="M251.591 58.015C251.958 59.099 252.536 60.0994 253.292 60.9584C254.048 61.8174 254.967 62.5179 255.995 63.0192C258.758 64.3439 260.694 62.0116 260.388 59.1245C260.128 56.5319 258.362 52.7051 255.361 52.5919C252.361 52.4787 250.719 55.3317 251.591 58.015Z" fill="#FFC3BD"/>
<path d="M260.456 76.4922C265.673 80.1995 269.941 85.0875 272.91 90.7576C272.91 90.7576 273.578 74.2391 278.571 69.4387H283.609V75.7902L278.571 76.2204L283.609 79.5264C283.609 79.5264 274.71 90.4745 273.725 95.558C273.725 95.558 266.932 89.0593 262.732 87.3724L263.694 83.557L259.743 85.5269L257.625 80.1604L260.456 76.4922Z" fill="#407BFF"/>
<path d="M329.258 159.13L288.058 146.053L282.703 101.91L323.903 114.986L329.258 159.13Z" fill="#407BFF"/>
<path d="M329.258 159.13L366.133 136.588L360.778 92.4333L323.903 114.986L329.258 159.13Z" fill="#407BFF"/>
<path opacity="0.2" d="M329.258 159.13L366.133 136.588L360.778 92.4333L323.903 114.986L329.258 159.13Z" fill="black"/>
<path d="M360.778 92.4333L323.903 114.986L282.703 101.91L319.578 79.3567L360.778 92.4333Z" fill="#407BFF"/>
<path opacity="0.5" d="M360.778 92.4333L323.903 114.986L282.703 101.91L319.578 79.3567L360.778 92.4333Z" fill="black"/>
<path d="M360.778 92.4332L319.612 79.3679L323.926 114.975L360.778 92.4332Z" fill="#407BFF"/>
<path opacity="0.3" d="M360.778 92.4332L319.612 79.3679L323.926 114.975L360.778 92.4332Z" fill="black"/>
<path d="M323.903 114.986L311.902 134.516L270.702 121.44L282.703 101.91L323.903 114.986Z" fill="#407BFF"/>
<path opacity="0.3" d="M323.903 114.986L311.902 134.516L270.702 121.44L282.703 101.91L323.903 114.986Z" fill="white"/>
<path d="M323.903 114.986L340.229 131.086L377.104 108.533L360.778 92.4333L323.903 114.986Z" fill="#407BFF"/>
<path opacity="0.3" d="M323.903 114.986L340.229 131.086L377.104 108.533L360.778 92.4333L323.903 114.986Z" fill="white"/>
<path d="M372.655 94.5165L331.829 81.5644L319.578 79.3L360.778 92.3767L372.655 94.5278V94.5165Z" fill="#407BFF"/>
<path opacity="0.2" d="M372.655 94.5165L331.829 81.5644L319.578 79.3L360.778 92.3767L372.655 94.5278V94.5165Z" fill="white"/>
<path d="M308.211 84.4402C308.211 84.4402 272.718 106.144 271.812 106.71V106.778L282.703 101.91L319.578 79.3567L308.211 84.4402Z" fill="#407BFF"/>
<path opacity="0.2" d="M308.211 84.4402C308.211 84.4402 272.718 106.144 271.812 106.71V106.778L282.703 101.91L319.578 79.3567L308.211 84.4402Z" fill="white"/>
<path d="M244.073 118.836C244.073 118.836 235.31 104.876 244.073 95.2638C252.836 85.6517 261.543 112.36 261.543 112.36C261.543 112.36 253.833 110.367 244.073 118.836Z" fill="#407BFF"/>
<path opacity="0.7" d="M244.073 118.836C244.073 118.836 235.31 104.876 244.073 95.2638C252.836 85.6517 261.543 112.36 261.543 112.36C261.543 112.36 253.833 110.367 244.073 118.836Z" fill="white"/>
<path d="M259.845 113.763C259.845 113.763 266.253 126.568 269.072 132.592C269.072 132.592 278.129 136.26 297.297 139.034C297.297 139.034 307.056 133.373 312.366 135.637C318.22 138.105 319.793 140.743 317.065 143.913C314.336 147.083 308.981 145.985 308.981 145.985C305.78 146.8 302.442 146.928 299.188 146.359C299.188 146.359 281.797 146.891 265.868 143.347C256.12 141.151 247.628 118.213 247.628 118.213L259.845 113.763Z" fill="#FFC3BD"/>
<path d="M242.76 118.836C244.932 115.833 247.976 113.572 251.478 112.36C254.846 111.174 258.426 110.715 261.984 111.012L263.049 115.734C263.049 115.734 255.531 114.42 245.296 122.232L242.76 118.836Z" fill="#407BFF"/>
<path d="M402.171 95.8411L362.624 77.4206C362.46 77.3451 362.313 77.238 362.19 77.1054C362.068 76.9728 361.973 76.8173 361.911 76.648C361.849 76.4786 361.821 76.2987 361.829 76.1185C361.836 75.9383 361.88 75.7613 361.956 75.5978L386.603 22.7026C386.679 22.5402 386.785 22.3943 386.917 22.2733C387.049 22.1523 387.204 22.0586 387.372 21.9976C387.541 21.9366 387.72 21.9094 387.898 21.9177C388.077 21.926 388.253 21.9696 388.415 22.0459L412.779 33.3677L421.486 57.5736L403.982 95.1845C403.907 95.3469 403.8 95.4928 403.668 95.6138C403.536 95.7348 403.381 95.8285 403.213 95.8895C403.045 95.9505 402.866 95.9777 402.687 95.9694C402.508 95.9611 402.333 95.9175 402.171 95.8411Z" fill="#407BFF"/>
<path opacity="0.1" d="M421.485 57.6076L412.779 33.4017L411.488 32.7903L402.08 52.9883L419.798 61.2419L421.485 57.6076Z" fill="black"/>
<path opacity="0.2" d="M421.553 57.4717L405.125 49.8295L412.779 33.4016L421.553 57.4717Z" fill="black"/>
<path d="M414.004 56.9801L384.745 43.3489L376.106 61.8935L405.365 75.5247L414.004 56.9801Z" fill="#407BFF"/>
<path opacity="0.7" d="M414.004 56.9801L384.745 43.3489L376.106 61.8935L405.365 75.5247L414.004 56.9801Z" fill="white"/>
<path d="M387.294 59.3398L377.953 62.7364L390.69 68.6803L387.294 59.3398Z" fill="#407BFF"/>
<path opacity="0.2" d="M387.294 59.3398L377.953 62.7364L390.69 68.6803L387.294 59.3398Z" fill="white"/>
<path d="M387.826 67.3442L405.374 75.5185L406.167 73.8202L401.933 62.2041L387.826 67.3442Z" fill="#407BFF"/>
<path opacity="0.4" d="M387.826 67.3442L405.374 75.5185L406.167 73.8202L401.933 62.2041L387.826 67.3442Z" fill="white"/>
<path d="M396.521 56.849C396.238 57.4564 395.781 57.9665 395.208 58.315C394.636 58.6635 393.973 58.8347 393.303 58.8073C392.634 58.7799 391.987 58.5549 391.445 58.1607C390.903 57.7666 390.49 57.2208 390.257 56.5922C390.024 55.9636 389.983 55.2803 390.138 54.6282C390.293 53.9761 390.637 53.3845 391.128 52.9278C391.618 52.4711 392.233 52.1697 392.895 52.0616C393.556 51.9535 394.235 52.0435 394.845 52.3203C395.254 52.5057 395.622 52.7704 395.928 53.0991C396.234 53.4278 396.472 53.8138 396.628 54.235C396.784 54.6562 396.854 55.104 396.836 55.5527C396.818 56.0014 396.711 56.442 396.521 56.849Z" fill="white"/>
<path d="M373.538 75.2694L375.712 75.0769C375.701 75.361 375.781 75.641 375.94 75.8769C376.099 76.1128 376.328 76.2925 376.595 76.3903C376.727 76.4836 376.878 76.5452 377.038 76.5704C377.198 76.5956 377.361 76.5836 377.516 76.5354C377.67 76.4873 377.811 76.4042 377.928 76.2926C378.046 76.181 378.135 76.044 378.191 75.8921L380.931 70.0161L382.901 70.9445L380.172 76.8092C380 77.2284 379.74 77.6055 379.409 77.9148C379.077 78.2241 378.683 78.4582 378.253 78.6012C377.823 78.7442 377.368 78.7926 376.917 78.7432C376.467 78.6938 376.032 78.5477 375.644 78.315C375.036 78.0655 374.513 77.645 374.139 77.1044C373.765 76.5638 373.556 75.9264 373.538 75.2694Z" fill="white"/>
<path d="M389.241 77.534C389.057 77.9277 388.796 78.2808 388.474 78.5726C388.151 78.8644 387.774 79.0891 387.364 79.2335C386.954 79.3779 386.519 79.4391 386.085 79.4136C385.651 79.3881 385.227 79.2764 384.837 79.0851L383.546 78.485L382.278 81.2022L380.297 80.2738L384.327 71.624L387.599 73.1525C387.998 73.3285 388.357 73.5824 388.657 73.8993C388.956 74.2162 389.189 74.5897 389.342 74.9978C389.495 75.406 389.565 75.8406 389.547 76.2761C389.53 76.7116 389.426 77.1393 389.241 77.534ZM387.271 76.6056C387.349 76.4676 387.398 76.3147 387.413 76.1568C387.428 75.9989 387.41 75.8395 387.36 75.689C387.31 75.5384 387.229 75.4002 387.122 75.2831C387.015 75.166 386.884 75.0727 386.739 75.0092L385.437 74.3979L384.406 76.6622L385.697 77.2623C385.844 77.3332 386.003 77.3717 386.166 77.3753C386.329 77.3788 386.49 77.3473 386.639 77.2828C386.789 77.2184 386.923 77.1225 387.031 77.0017C387.14 76.881 387.222 76.7381 387.271 76.583V76.6056Z" fill="white"/>
<path d="M397.993 83.5344C397.759 84.1163 397.404 84.6423 396.953 85.0781C396.502 85.5138 395.964 85.8495 395.374 86.0632C394.784 86.2769 394.156 86.3638 393.53 86.3182C392.905 86.2726 392.296 86.0956 391.743 85.7987C391.115 85.5545 390.543 85.185 390.062 84.7127C389.581 84.2405 389.201 83.6754 388.945 83.0517C388.69 82.4281 388.564 81.7589 388.575 81.085C388.586 80.411 388.734 79.7463 389.01 79.1314C389.286 78.5164 389.684 77.964 390.18 77.5078C390.676 77.0515 391.26 76.701 391.896 76.4774C392.532 76.2538 393.206 76.1619 393.879 76.2073C394.551 76.2527 395.208 76.4344 395.808 76.7413C396.56 77.0726 397.216 77.5889 397.715 78.2422C398.214 78.8955 398.539 79.6645 398.661 80.4775L396.532 80.6586C396.402 80.0755 396.092 79.5479 395.646 79.1496C395.201 78.7512 394.642 78.5022 394.048 78.4373C393.454 78.3724 392.855 78.4949 392.334 78.7877C391.813 79.0804 391.397 79.5288 391.143 80.0699C390.97 80.4174 390.872 80.7975 390.856 81.1854C390.84 81.5733 390.907 81.9601 391.051 82.3205C391.196 82.6809 391.415 83.0067 391.694 83.2764C391.973 83.5461 392.306 83.7536 392.671 83.8854C393.113 84.1466 393.627 84.2581 394.138 84.203C394.648 84.1479 395.126 83.9292 395.502 83.5797L393.238 82.4475L394.041 80.7153L398.378 82.7419L397.993 83.5344Z" fill="white"/>
<path d="M336.731 100.743L309.955 104.989C309.734 105.022 309.51 104.966 309.33 104.835C309.15 104.704 309.029 104.507 308.992 104.287L303.331 68.4877C303.296 68.2655 303.349 68.0381 303.481 67.8556C303.613 67.673 303.811 67.5501 304.033 67.514L320.518 64.8987L333.413 74.3524L337.444 99.781C337.476 100.003 337.42 100.229 337.286 100.409C337.152 100.59 336.953 100.71 336.731 100.743Z" fill="#407BFF"/>
<path opacity="0.1" d="M333.402 74.3524L320.507 64.8987L319.635 65.0459L321.797 78.7112L333.799 76.8092L333.402 74.3524Z" fill="black"/>
<path opacity="0.2" d="M333.391 74.2618L322.273 76.0167L320.507 64.8987L333.391 74.2618Z" fill="black"/>
<path d="M318.525 85.3799L313.6 86.1611L313.034 88.8104L312.253 88.9349L314.517 78.5076L315.299 78.3831L320.654 87.599L319.873 87.7235L318.525 85.3799ZM318.14 84.7232L315.05 79.3567L313.77 85.4592L318.14 84.7232Z" fill="white"/>
<path d="M328.466 79.1755L329.53 85.8554C329.612 86.3069 329.599 86.7707 329.49 87.2166C329.381 87.6625 329.18 88.0806 328.899 88.4437C328.618 88.8067 328.264 89.1066 327.86 89.3239C327.456 89.5411 327.01 89.6709 326.553 89.7048C325.91 89.8768 325.232 89.8616 324.598 89.661C323.965 89.4604 323.401 89.0827 322.975 88.5726L323.541 88.1311C323.879 88.5571 324.336 88.8729 324.854 89.0383C325.373 89.2036 325.928 89.211 326.451 89.0594C326.819 89.0443 327.18 88.9491 327.507 88.7804C327.835 88.6116 328.122 88.3735 328.349 88.0825C328.575 87.7915 328.735 87.4547 328.818 87.0954C328.901 86.7362 328.904 86.3633 328.828 86.0026L328.624 84.7119C328.421 85.3055 328.058 85.8314 327.574 86.2311C327.091 86.6307 326.506 86.8887 325.885 86.9762C324.944 87.061 324.007 86.7845 323.263 86.2028C322.519 85.6211 322.025 84.778 321.881 83.8449C321.737 82.9118 321.953 81.9589 322.487 81.1798C323.02 80.4007 323.83 79.8541 324.752 79.651C325.361 79.548 325.986 79.6126 326.56 79.838C327.135 80.0634 327.637 80.4411 328.013 80.9304L327.753 79.3001L328.466 79.1755ZM328.319 82.7985C328.234 82.206 327.975 81.6522 327.575 81.2076C327.174 80.763 326.65 80.4479 326.069 80.3024C325.489 80.1569 324.878 80.1877 324.315 80.3908C323.752 80.5939 323.263 80.9601 322.909 81.4427C322.555 81.9253 322.353 82.5024 322.328 83.1004C322.304 83.6983 322.458 84.29 322.771 84.8C323.084 85.3099 323.542 85.715 324.087 85.9634C324.631 86.2119 325.237 86.2925 325.828 86.195C326.607 86.0723 327.307 85.6463 327.773 85.01C328.24 84.3738 328.436 83.5788 328.319 82.7985Z" fill="white"/>
<path d="M315.117 98.0942C315.022 97.4926 315.107 96.876 315.362 96.3227C315.617 95.7693 316.03 95.304 316.549 94.9856C317.069 94.6672 317.671 94.51 318.28 94.5339C318.888 94.5578 319.476 94.7617 319.969 95.1198C320.462 95.4779 320.838 95.9742 321.048 96.5458C321.259 97.1175 321.295 97.7387 321.153 98.3311C321.011 98.9234 320.696 99.4602 320.248 99.8735C319.8 100.287 319.24 100.558 318.639 100.653C318.239 100.721 317.83 100.708 317.435 100.615C317.04 100.523 316.668 100.352 316.34 100.114C316.012 99.8755 315.735 99.5741 315.525 99.2273C315.315 98.8805 315.177 98.4953 315.117 98.0942ZM319.861 97.347C319.801 97.0135 319.645 96.7052 319.41 96.4605C319.176 96.2159 318.875 96.0458 318.544 95.9717C318.213 95.8976 317.868 95.9227 317.552 96.0439C317.236 96.1651 316.962 96.3769 316.766 96.6529C316.569 96.9289 316.458 97.2568 316.447 97.5954C316.437 97.934 316.526 98.2683 316.704 98.5564C316.882 98.8445 317.142 99.0735 317.449 99.2149C317.757 99.3562 318.1 99.4036 318.435 99.3509C318.664 99.3215 318.884 99.2449 319.083 99.1262C319.281 99.0074 319.452 98.849 319.586 98.6608C319.72 98.4726 319.814 98.2587 319.861 98.0326C319.908 97.8066 319.908 97.5731 319.861 97.347Z" fill="white"/>
<path d="M325.296 94.7995L323.79 95.0372L324.515 99.5659L323.167 99.7697L322.454 95.241L320.948 95.4788L320.744 94.1881L325.092 93.5088L325.296 94.7995Z" fill="white"/>
<path d="M327.221 94.5166L327.39 95.6487L329.575 95.3091L329.779 96.5884L327.605 96.9394L327.945 99.0905L326.598 99.2943L325.681 93.441L329.225 92.8862L329.428 94.1656L327.221 94.5166Z" fill="white"/>
<path d="M362.284 61.6834L326.881 59.8493C326.597 59.8265 326.331 59.6972 326.138 59.4873C325.945 59.2774 325.838 59.0023 325.839 58.7171L328.319 11.3356C328.342 11.0512 328.471 10.786 328.681 10.5929C328.891 10.3998 329.166 10.293 329.451 10.294L351.268 11.4261L365.205 27.0275L363.45 60.6758C363.419 60.9599 363.281 61.2217 363.065 61.4086C362.849 61.5955 362.57 61.6937 362.284 61.6834Z" fill="#407BFF"/>
<path opacity="0.1" d="M365.205 27.005L351.279 11.4036L350.113 11.3357L349.173 29.4279L365.035 30.2543L365.205 27.005Z" fill="black"/>
<path opacity="0.2" d="M365.216 26.8804L350.498 26.1105L351.279 11.4036L365.216 26.8804Z" fill="black"/>
<path d="M468.289 354.339H430.792V354.622H468.289V354.339Z" fill="#EBEBEB"/>
<path d="M333.923 357.419H324.084V357.702H333.923V357.419Z" fill="#EBEBEB"/>
<path d="M429.659 343.833H407.933V344.116H429.659V343.833Z" fill="#EBEBEB"/>
<path d="M84.4704 345.735H77.3037V346.018H84.4704V345.735Z" fill="#EBEBEB"/>
<path d="M446.642 209.851H237.042V322.65H446.642V209.851Z" fill="#E6E6E6"/>
<path d="M253.855 327.337H240.677V337.289H253.855V327.337Z" fill="#E6E6E6"/>
<path d="M462.651 201.462H449.473V337.289H462.651V201.462Z" fill="#E6E6E6"/>
<path d="M446.11 201.462H233.646V337.323H240.677V329.715H442.601V337.323H449.631V201.462H446.11ZM442.601 260.946H345.154V213.757H442.601V260.946ZM240.677 213.757H338.123V317.385H240.677V213.757ZM345.154 317.385V267.955H442.601V317.385H345.154Z" fill="#F0F0F0"/>
<path d="M338.123 218.829H247.255V317.385H338.123V218.829Z" fill="#F5F5F5"/>
<path d="M334.013 265.158C334.013 265.993 333.766 266.81 333.302 267.504C332.838 268.199 332.178 268.74 331.406 269.06C330.635 269.379 329.786 269.463 328.967 269.3C328.147 269.137 327.395 268.735 326.804 268.144C326.214 267.554 325.811 266.801 325.649 265.982C325.486 265.163 325.569 264.314 325.889 263.542C326.208 262.77 326.75 262.111 327.444 261.647C328.139 261.183 328.955 260.935 329.79 260.935C330.345 260.935 330.894 261.044 331.406 261.257C331.919 261.469 332.384 261.78 332.777 262.172C333.169 262.564 333.48 263.03 333.692 263.542C333.904 264.054 334.013 264.604 334.013 265.158Z" fill="#FAFAFA"/>
<path d="M329.79 269.381C328.983 269.38 328.193 269.146 327.515 268.709C326.836 268.271 326.298 267.648 325.964 266.913C325.704 267.461 325.568 268.061 325.567 268.668C325.567 269.788 326.012 270.862 326.804 271.654C327.596 272.446 328.67 272.891 329.79 272.891C330.91 272.891 331.985 272.446 332.777 271.654C333.569 270.862 334.013 269.788 334.013 268.668C334.013 268.061 333.877 267.461 333.617 266.913C333.282 267.647 332.743 268.269 332.065 268.707C331.387 269.144 330.597 269.378 329.79 269.381Z" fill="#E0E0E0"/>
<path d="M282.499 317.385H304.181L314.54 218.83H292.859L282.499 317.385Z" fill="#FAFAFA"/>
<path d="M309.728 317.385H314.042L324.401 218.83H320.088L309.728 317.385Z" fill="#FAFAFA"/>
<path d="M367.107 218.728H358.525V260.878H367.107V218.728Z" fill="#FAFAFA"/>
<path d="M402.714 218.728H394.132V260.878H402.714V218.728Z" fill="#F5F5F5"/>
<path d="M375.689 221.694H367.107V260.89H375.689V221.694Z" fill="#F5F5F5"/>
<path d="M394.121 221.694H385.539V260.89H394.121V221.694Z" fill="#FAFAFA"/>
<path d="M385.539 218.728H379.991V260.878H385.539V218.728Z" fill="#EBEBEB"/>
<path d="M379.991 221.694H375.7V260.89H379.991V221.694Z" fill="#FAFAFA"/>
<path d="M411.296 218.728H402.714V260.878H411.296V218.728Z" fill="#EBEBEB"/>
<path d="M419.878 221.694H411.296V260.89H419.878V221.694Z" fill="#E6E6E6"/>
<path d="M438.309 221.694H429.728V260.89H438.309V221.694Z" fill="#E6E6E6"/>
<path d="M429.728 218.728H424.18V260.878H429.728V218.728Z" fill="#FAFAFA"/>
<path d="M424.18 221.694H419.889V260.89H424.18V221.694Z" fill="#EBEBEB"/>
<path d="M442.612 219.735H438.321V260.89H442.612V219.735Z" fill="#EBEBEB"/>
<path d="M434.03 317.385H442.612V275.234H434.03V317.385Z" fill="#EBEBEB"/>
<path d="M398.423 317.385H407.005V275.234H398.423V317.385Z" fill="#FAFAFA"/>
<path d="M425.448 317.385H434.03V278.189H425.448V317.385Z" fill="#FAFAFA"/>
<path d="M407.016 317.385H415.598V278.189H407.016V317.385Z" fill="#EBEBEB"/>
<path d="M415.598 317.385H421.146V275.234H415.598V317.385Z" fill="#FAFAFA"/>
<path d="M421.146 317.385H425.437V278.189H421.146V317.385Z" fill="#F5F5F5"/>
<path d="M389.841 317.385H398.423V275.234H389.841V317.385Z" fill="#EBEBEB"/>
<path d="M381.248 317.385H389.83V278.189H381.248V317.385Z" fill="#F5F5F5"/>
<path d="M362.827 317.385H371.409V278.189H362.827V317.385Z" fill="#E6E6E6"/>
<path d="M371.398 317.385H376.946V275.234H371.398V317.385Z" fill="#FAFAFA"/>
<path d="M352.977 317.385H358.525V275.234H352.977V317.385Z" fill="#FAFAFA"/>
<path d="M376.957 317.385H381.248V278.189H376.957V317.385Z" fill="#EBEBEB"/>
<path d="M358.525 317.385H362.816V276.231H358.525V317.385Z" fill="#EBEBEB"/>
<path d="M149.673 62.3967C149.39 38.9493 136.29 17.1096 115.164 6.56907C105.617 1.80471 95.0076 -0.433105 84.3494 0.0692338C73.6912 0.571573 63.3397 3.7973 54.2829 9.4385C45.2261 15.0797 37.7663 22.9481 32.6156 32.2926C27.465 41.6371 24.7953 52.1458 24.8615 62.8156C24.8615 68.5897 24.8615 74.3638 24.8615 80.1378V312.324C24.8615 318.71 24.1143 325.616 24.8615 331.956C24.8785 332.25 24.8785 332.545 24.8615 332.839C24.8615 333.254 25.0261 333.651 25.3191 333.944C25.6121 334.237 26.0095 334.402 26.4239 334.402C26.8383 334.402 27.2357 334.237 27.5287 333.944C27.8217 333.651 27.9863 333.254 27.9863 332.839V69.6086C27.9863 60.9135 28.1562 52.4562 30.9073 44.0214C34.7969 32.141 42.3414 21.7935 52.4631 14.4569C62.5848 7.12037 74.7661 3.16997 87.2671 3.16997C99.768 3.16997 111.949 7.12037 122.071 14.4569C132.193 21.7935 139.737 32.141 143.627 44.0214C145.535 49.9765 146.52 56.1887 146.548 62.4419C146.548 62.8563 146.712 63.2537 147.005 63.5467C147.298 63.8397 147.696 64.0043 148.11 64.0043C148.525 64.0043 148.922 63.8397 149.215 63.5467C149.508 63.2537 149.673 62.8563 149.673 62.4419V62.3967Z" fill="#F5F5F5"/>
<path d="M180.015 70.6503C180.101 65.7168 179.203 60.8156 177.375 56.2326C175.547 51.6497 172.824 47.4767 169.365 43.9574C165.907 40.438 161.782 37.6427 157.232 35.7346C152.681 33.8265 147.797 32.8438 142.862 32.8438C137.928 32.8437 133.043 33.8265 128.493 35.7346C123.943 37.6427 119.818 40.438 116.359 43.9574C112.901 47.4767 110.178 51.6497 108.35 56.2326C106.521 60.8156 105.624 65.7168 105.71 70.6503H180.015Z" fill="#F0F0F0"/>
<path d="M146.865 33.7073C155.977 34.6902 164.404 39.0059 170.527 45.8249C176.65 52.644 180.037 61.4854 180.037 70.6502H113.681C113.681 61.4836 117.07 52.6408 123.195 45.8215C129.321 39.0021 137.751 34.6876 146.865 33.7073Z" fill="#F5F5F5"/>
<path d="M35.5945 225.6H17.4797V336.179H35.5945V225.6Z" fill="#F5F5F5"/>
<path d="M6.73535 329.918H46.1011C47.8607 329.918 49.5482 330.617 50.7924 331.862C52.0367 333.106 52.7357 334.793 52.7357 336.553V336.859H0.0894775V336.553C0.0894775 334.793 0.788473 333.106 2.03269 331.862C3.27691 330.617 4.96444 329.918 6.72403 329.918H6.73535Z" fill="#F5F5F5"/>
<path d="M430.769 172.75L432.196 161.711H419.719L421.134 172.75C418.229 173.747 415.709 175.628 413.926 178.129C412.143 180.63 411.188 183.627 411.194 186.698C411.451 192.036 413.327 197.17 416.572 201.417H435.366C438.61 197.17 440.486 192.036 440.744 186.698C440.747 183.623 439.786 180.623 437.997 178.121C436.208 175.62 433.681 173.741 430.769 172.75Z" fill="#F5F5F5"/>
<path d="M438.864 127.938C438.864 127.938 425.063 149.642 425.561 176.418C425.561 176.418 433 144.095 438.864 127.938Z" fill="#F0F0F0"/>
<path d="M413.39 116.594C413.39 116.594 430.69 141.977 426.976 173.859C426.954 173.859 420.851 133.577 413.39 116.594Z" fill="#F0F0F0"/>
<path d="M426.693 181.592C426.693 181.592 431.222 148.623 410.933 138.671C410.933 138.671 421.678 146.948 426.693 181.592Z" fill="#F5F5F5"/>
<path d="M428.777 191.114C428.72 190.729 423.535 152.291 431.335 119.209L432.467 119.47C424.723 152.303 429.875 190.582 429.931 190.955L428.777 191.114Z" fill="#F5F5F5"/>
<path d="M428.561 119.798L428.188 119.889C428.054 119.917 427.927 119.973 427.816 120.053C427.705 120.134 427.612 120.236 427.542 120.354C427.473 120.473 427.429 120.604 427.414 120.74C427.398 120.877 427.411 121.014 427.452 121.145L427.961 122.776C428.013 122.94 428.107 123.088 428.233 123.206C428.359 123.323 428.513 123.406 428.681 123.446C428.849 123.486 429.024 123.482 429.19 123.434C429.355 123.386 429.505 123.295 429.626 123.172L430.214 122.561C430.331 122.444 430.474 122.357 430.632 122.309C430.789 122.262 430.956 122.253 431.118 122.286C431.279 122.319 431.43 122.391 431.557 122.496C431.684 122.601 431.783 122.736 431.845 122.889L432.739 125.153C432.794 125.289 432.878 125.411 432.986 125.51C433.093 125.609 433.221 125.684 433.36 125.728C433.5 125.772 433.647 125.785 433.792 125.766C433.937 125.747 434.076 125.696 434.2 125.617L436.056 124.485C436.181 124.404 436.285 124.296 436.362 124.17C436.439 124.043 436.487 123.901 436.503 123.753C436.518 123.606 436.5 123.456 436.45 123.317C436.4 123.177 436.32 123.05 436.215 122.945L435.898 122.64C435.763 122.505 435.669 122.334 435.629 122.147C435.588 121.96 435.602 121.766 435.669 121.587C435.736 121.408 435.853 121.252 436.006 121.138C436.159 121.023 436.341 120.955 436.532 120.942L438.174 120.851C438.31 120.841 438.444 120.804 438.565 120.741C438.687 120.678 438.795 120.591 438.882 120.485C438.968 120.379 439.033 120.256 439.071 120.124C439.109 119.993 439.119 119.855 439.102 119.719L438.876 118.326C438.849 118.172 438.786 118.027 438.692 117.902C438.599 117.777 438.477 117.675 438.337 117.606C438.197 117.537 438.043 117.501 437.886 117.502C437.73 117.503 437.577 117.541 437.438 117.613L437.324 117.67C437.145 117.768 436.94 117.808 436.737 117.784C436.534 117.76 436.343 117.674 436.192 117.537C436.04 117.4 435.935 117.22 435.89 117.02C435.845 116.821 435.864 116.613 435.943 116.424L436.441 115.179C436.5 115.036 436.525 114.882 436.514 114.729C436.503 114.575 436.456 114.426 436.376 114.294C436.297 114.162 436.188 114.05 436.058 113.968C435.927 113.885 435.78 113.835 435.626 113.82L433.86 113.639C433.719 113.618 433.575 113.627 433.438 113.667C433.301 113.707 433.174 113.776 433.066 113.87C432.959 113.963 432.872 114.079 432.814 114.21C432.756 114.34 432.726 114.481 432.728 114.624C432.728 114.841 432.657 115.052 432.526 115.225C432.395 115.398 432.211 115.524 432.002 115.582C431.793 115.641 431.571 115.631 431.369 115.552C431.167 115.473 430.996 115.33 430.882 115.145L430.645 114.737C430.566 114.609 430.459 114.501 430.332 114.421C430.205 114.34 430.062 114.289 429.913 114.272C429.764 114.254 429.612 114.271 429.471 114.32C429.329 114.369 429.2 114.45 429.094 114.556L427.837 115.813C427.738 115.906 427.66 116.018 427.606 116.143C427.552 116.267 427.524 116.402 427.524 116.537C427.524 116.673 427.552 116.807 427.606 116.932C427.66 117.057 427.738 117.169 427.837 117.262L428.901 118.19C429.015 118.306 429.099 118.449 429.145 118.605C429.191 118.761 429.197 118.926 429.163 119.085C429.13 119.245 429.057 119.393 428.952 119.518C428.847 119.642 428.713 119.738 428.561 119.798Z" fill="#EBEBEB"/>
<path d="M236.511 382.893C357.747 382.893 456.028 377.155 456.028 370.077C456.028 362.999 357.747 357.26 236.511 357.26C115.274 357.26 16.993 362.999 16.993 370.077C16.993 377.155 115.274 382.893 236.511 382.893Z" fill="#F5F5F5"/>
<path d="M203.496 299.35H214.908V246.364H203.496V299.35Z" fill="#407BFF"/>
<path opacity="0.3" d="M203.496 299.35H214.908V246.364H203.496V299.35Z" fill="white"/>
<path d="M217.365 239.356H226.491V186.37H217.365V239.356Z" fill="#407BFF"/>
<path opacity="0.3" d="M217.365 239.356H226.491V186.37H217.365V239.356Z" fill="white"/>
<path d="M245.364 216.282C229.798 217.607 214.148 217.607 198.582 216.282C187.68 215.354 178.883 205.04 178.883 194.137V172.637C178.883 161.722 187.68 154.352 198.582 155.28C214.148 156.605 229.798 156.605 245.364 155.28C256.267 154.352 265.052 161.722 265.052 172.637V194.148C265.007 205.04 256.221 215.354 245.364 216.282Z" fill="#407BFF"/>
<g opacity="0.4">
<path opacity="0.4" d="M245.364 216.282C229.798 217.607 214.148 217.607 198.582 216.282C187.68 215.354 178.883 205.04 178.883 194.137V172.637C178.883 161.722 187.68 154.352 198.582 155.28C214.148 156.605 229.798 156.605 245.364 155.28C256.267 154.352 265.052 161.722 265.052 172.637V194.148C265.007 205.04 256.221 215.354 245.364 216.282Z" fill="white"/>
</g>
<path d="M167.697 238.189H250.719C253.341 238.189 255.855 239.231 257.708 241.084C259.562 242.938 260.603 245.452 260.603 248.073V250.157C260.603 251.313 260.144 252.421 259.327 253.239C258.509 254.056 257.4 254.515 256.244 254.515H162.172C161.016 254.515 159.907 254.056 159.09 253.239C158.272 252.421 157.813 251.313 157.813 250.157V248.073C157.813 245.452 158.854 242.938 160.708 241.084C162.562 239.231 165.076 238.189 167.697 238.189Z" fill="#407BFF"/>
<path opacity="0.4" d="M167.697 238.189H250.719C253.341 238.189 255.855 239.231 257.708 241.084C259.562 242.938 260.603 245.452 260.603 248.073V250.157C260.603 251.313 260.144 252.421 259.327 253.239C258.509 254.056 257.4 254.515 256.244 254.515H162.172C161.016 254.515 159.907 254.056 159.09 253.239C158.272 252.421 157.813 251.313 157.813 250.157V248.073C157.813 245.452 158.854 242.938 160.708 241.084C162.562 239.231 165.076 238.189 167.697 238.189Z" fill="white"/>
<path d="M259.652 355.154L216.29 346.391C216.326 346.251 216.345 346.106 216.346 345.961V296.485C216.348 296.254 216.303 296.025 216.216 295.812C216.128 295.598 215.999 295.404 215.836 295.241C215.672 295.078 215.478 294.948 215.265 294.861C215.051 294.773 214.822 294.729 214.591 294.73H203.824C203.594 294.729 203.365 294.773 203.151 294.861C202.938 294.948 202.743 295.078 202.58 295.241C202.417 295.404 202.288 295.598 202.2 295.812C202.112 296.025 202.068 296.254 202.07 296.485V345.961C202.071 346.106 202.09 346.251 202.126 346.391L158.764 355.154C158.496 355.198 158.253 355.336 158.078 355.544C157.903 355.752 157.809 356.015 157.813 356.287V358.313C157.819 358.481 157.86 358.646 157.935 358.796C158.009 358.947 158.114 359.08 158.244 359.187C158.373 359.294 158.524 359.372 158.685 359.417C158.847 359.461 159.017 359.471 159.183 359.445L206.655 352.256V358.008C206.653 358.193 206.689 358.377 206.758 358.548C206.828 358.72 206.932 358.876 207.062 359.008C207.193 359.139 207.348 359.244 207.519 359.315C207.69 359.386 207.873 359.423 208.059 359.423H210.323C210.508 359.423 210.692 359.386 210.863 359.315C211.034 359.244 211.189 359.139 211.32 359.008C211.45 358.876 211.554 358.72 211.623 358.548C211.693 358.377 211.729 358.193 211.727 358.008V352.256L259.233 359.445C259.399 359.471 259.569 359.461 259.73 359.417C259.892 359.372 260.043 359.294 260.172 359.187C260.302 359.08 260.407 358.947 260.481 358.796C260.556 358.646 260.597 358.481 260.603 358.313V356.343C260.621 356.062 260.533 355.785 260.357 355.565C260.181 355.345 259.93 355.199 259.652 355.154Z" fill="#407BFF"/>
<path opacity="0.4" d="M259.652 355.154L216.29 346.391C216.326 346.251 216.345 346.106 216.346 345.961V296.485C216.348 296.254 216.303 296.025 216.216 295.812C216.128 295.598 215.999 295.404 215.836 295.241C215.672 295.078 215.478 294.948 215.265 294.861C215.051 294.773 214.822 294.729 214.591 294.73H203.824C203.594 294.729 203.365 294.773 203.151 294.861C202.938 294.948 202.743 295.078 202.58 295.241C202.417 295.404 202.288 295.598 202.2 295.812C202.112 296.025 202.068 296.254 202.07 296.485V345.961C202.071 346.106 202.09 346.251 202.126 346.391L158.764 355.154C158.496 355.198 158.253 355.336 158.078 355.544C157.903 355.752 157.809 356.015 157.813 356.287V358.313C157.819 358.481 157.86 358.646 157.935 358.796C158.009 358.947 158.114 359.08 158.244 359.187C158.373 359.294 158.524 359.372 158.685 359.417C158.847 359.461 159.017 359.471 159.183 359.445L206.655 352.256V358.008C206.653 358.193 206.689 358.377 206.758 358.548C206.828 358.72 206.932 358.876 207.062 359.008C207.193 359.139 207.348 359.244 207.519 359.315C207.69 359.386 207.873 359.423 208.059 359.423H210.323C210.508 359.423 210.692 359.386 210.863 359.315C211.034 359.244 211.189 359.139 211.32 359.008C211.45 358.876 211.554 358.72 211.623 358.548C211.693 358.377 211.729 358.193 211.727 358.008V352.256L259.233 359.445C259.399 359.471 259.569 359.461 259.73 359.417C259.892 359.372 260.043 359.294 260.172 359.187C260.302 359.08 260.407 358.947 260.481 358.796C260.556 358.646 260.597 358.481 260.603 358.313V356.343C260.621 356.062 260.533 355.785 260.357 355.565C260.181 355.345 259.93 355.199 259.652 355.154Z" fill="white"/>
<path d="M347.011 212.467H271.948V223.788H347.011V212.467Z" fill="#407BFF"/>
<path opacity="0.6" d="M347.011 212.467H271.948V223.788H347.011V212.467Z" fill="white"/>
<path d="M132.577 223.788H141.204V365.673C141.204 366.03 141.062 366.373 140.809 366.625C140.557 366.878 140.214 367.02 139.857 367.02H133.879C133.521 367.02 133.179 366.878 132.926 366.625C132.673 366.373 132.531 366.03 132.531 365.673V223.788H132.577Z" fill="#407BFF"/>
<g opacity="0.5">
<path opacity="0.5" d="M132.577 223.788H141.204V365.673C141.204 366.03 141.062 366.373 140.809 366.625C140.557 366.878 140.214 367.02 139.857 367.02H133.879C133.521 367.02 133.179 366.878 132.926 366.625C132.673 366.373 132.531 366.03 132.531 365.673V223.788H132.577Z" fill="white"/>
</g>
<path d="M333.357 223.788H342.018V365.673C342.018 366.03 341.876 366.373 341.624 366.625C341.371 366.878 341.028 367.02 340.671 367.02H334.693C334.336 367.02 333.993 366.878 333.74 366.625C333.488 366.373 333.346 366.03 333.346 365.673V223.788H333.357Z" fill="#407BFF"/>
<path opacity="0.5" d="M333.357 223.788H342.018V365.673C342.018 366.03 341.876 366.373 341.624 366.625C341.371 366.878 341.028 367.02 340.671 367.02H334.693C334.336 367.02 333.993 366.878 333.74 366.625C333.488 366.373 333.346 366.03 333.346 365.673V223.788H333.357Z" fill="white"/>
<path d="M293.357 212.467H73.9189V223.788H293.357V212.467Z" fill="#407BFF"/>
<path opacity="0.7" d="M293.357 212.467H73.9189V223.788H293.357V212.467Z" fill="white"/>
<path d="M78.9344 223.788H87.5956V365.673C87.5956 366.03 87.4536 366.373 87.201 366.625C86.9483 366.878 86.6056 367.02 86.2483 367.02H80.2704C79.9151 367.017 79.5753 366.874 79.3251 366.621C79.0748 366.369 78.9344 366.028 78.9344 365.673V223.788Z" fill="#407BFF"/>
<g opacity="0.6">
<path opacity="0.6" d="M78.9344 223.788H87.5956V365.673C87.5956 366.03 87.4536 366.373 87.201 366.625C86.9483 366.878 86.6056 367.02 86.2483 367.02H80.2704C79.9151 367.017 79.5753 366.874 79.3251 366.621C79.0748 366.369 78.9344 366.028 78.9344 365.673V223.788Z" fill="white"/>
</g>
<path d="M279.703 223.788H288.387V365.673C288.387 366.03 288.245 366.373 287.992 366.625C287.74 366.878 287.397 367.02 287.04 367.02H281.062C280.705 367.02 280.362 366.878 280.109 366.625C279.857 366.373 279.715 366.03 279.715 365.673V223.788H279.703Z" fill="#407BFF"/>
<path opacity="0.6" d="M279.703 223.788H288.387V365.673C288.387 366.03 288.245 366.373 287.992 366.625C287.74 366.878 287.397 367.02 287.04 367.02H281.062C280.705 367.02 280.362 366.878 280.109 366.625C279.857 366.373 279.715 366.03 279.715 365.673V223.788H279.703Z" fill="white"/>
<path d="M161.153 209.817H158.345C158.204 209.817 158.069 209.761 157.969 209.662C157.869 209.562 157.813 209.426 157.813 209.285V206.319C157.813 206.249 157.827 206.18 157.854 206.115C157.88 206.051 157.92 205.992 157.969 205.943C158.018 205.893 158.077 205.854 158.142 205.827C158.206 205.801 158.275 205.787 158.345 205.787H160.361C160.478 205.786 160.592 205.825 160.684 205.897C160.776 205.968 160.842 206.069 160.87 206.183L161.663 209.138C161.685 209.217 161.689 209.3 161.675 209.381C161.66 209.462 161.626 209.539 161.577 209.605C161.527 209.67 161.463 209.724 161.39 209.761C161.316 209.798 161.235 209.817 161.153 209.817Z" fill="#407BFF"/>
<path d="M164.98 209.817H162.172C162.031 209.817 161.896 209.761 161.796 209.662C161.696 209.562 161.64 209.426 161.64 209.285V206.319C161.64 206.249 161.654 206.18 161.68 206.115C161.707 206.051 161.746 205.992 161.796 205.943C161.845 205.893 161.904 205.854 161.968 205.827C162.033 205.801 162.102 205.787 162.172 205.787H164.187C164.304 205.786 164.418 205.825 164.511 205.897C164.603 205.968 164.669 206.069 164.697 206.183L165.489 209.138C165.512 209.217 165.516 209.3 165.501 209.381C165.486 209.462 165.453 209.539 165.404 209.605C165.354 209.67 165.29 209.724 165.217 209.761C165.143 209.798 165.062 209.817 164.98 209.817Z" fill="#407BFF"/>
<path d="M168.897 209.817H166.112C165.971 209.817 165.835 209.761 165.736 209.662C165.636 209.562 165.58 209.426 165.58 209.285V206.319C165.58 206.249 165.594 206.18 165.62 206.115C165.647 206.051 165.686 205.992 165.736 205.943C165.785 205.893 165.844 205.854 165.908 205.827C165.973 205.801 166.042 205.787 166.112 205.787H168.127C168.244 205.786 168.358 205.825 168.451 205.897C168.543 205.968 168.609 206.069 168.637 206.183L169.429 209.138C169.453 209.219 169.456 209.304 169.44 209.387C169.424 209.47 169.389 209.548 169.337 209.614C169.285 209.68 169.218 209.733 169.142 209.769C169.065 209.804 168.981 209.821 168.897 209.817Z" fill="#407BFF"/>
<path d="M172.769 209.817H169.961C169.82 209.817 169.685 209.761 169.585 209.662C169.485 209.562 169.429 209.426 169.429 209.285V206.319C169.429 206.249 169.443 206.18 169.47 206.115C169.496 206.051 169.536 205.992 169.585 205.943C169.634 205.893 169.693 205.854 169.758 205.827C169.822 205.801 169.891 205.787 169.961 205.787H171.977C172.094 205.786 172.208 205.825 172.3 205.897C172.393 205.968 172.458 206.069 172.486 206.183L173.279 209.138C173.301 209.217 173.305 209.3 173.291 209.381C173.276 209.462 173.242 209.539 173.193 209.605C173.144 209.67 173.08 209.724 173.006 209.761C172.933 209.798 172.851 209.817 172.769 209.817Z" fill="#407BFF"/>
<path d="M176.641 209.817H173.833C173.692 209.817 173.557 209.761 173.457 209.662C173.357 209.562 173.301 209.426 173.301 209.285V206.319C173.301 206.249 173.315 206.18 173.342 206.115C173.368 206.051 173.408 205.992 173.457 205.943C173.506 205.893 173.565 205.854 173.63 205.827C173.694 205.801 173.763 205.787 173.833 205.787H175.849C175.967 205.787 176.081 205.826 176.175 205.898C176.269 205.969 176.337 206.069 176.369 206.183L177.151 209.138C177.173 209.217 177.177 209.3 177.163 209.381C177.148 209.462 177.114 209.539 177.065 209.605C177.015 209.67 176.952 209.724 176.878 209.761C176.804 209.798 176.723 209.817 176.641 209.817Z" fill="#407BFF"/>
<path d="M180.513 209.817H177.705C177.564 209.817 177.429 209.761 177.329 209.662C177.229 209.562 177.173 209.426 177.173 209.285V206.319C177.173 206.249 177.187 206.18 177.214 206.115C177.24 206.051 177.28 205.992 177.329 205.943C177.378 205.893 177.437 205.854 177.502 205.827C177.566 205.801 177.635 205.787 177.705 205.787H179.698C179.816 205.787 179.931 205.826 180.025 205.898C180.119 205.969 180.187 206.069 180.219 206.183L181 209.138C181.022 209.215 181.027 209.297 181.013 209.376C181 209.455 180.968 209.53 180.921 209.596C180.874 209.661 180.813 209.715 180.743 209.753C180.672 209.792 180.593 209.814 180.513 209.817Z" fill="#407BFF"/>
<path d="M184.385 209.817H181.578C181.436 209.817 181.301 209.761 181.201 209.662C181.101 209.562 181.045 209.426 181.045 209.285V206.319C181.045 206.249 181.059 206.18 181.086 206.115C181.113 206.051 181.152 205.992 181.201 205.943C181.251 205.893 181.309 205.854 181.374 205.827C181.438 205.801 181.508 205.787 181.578 205.787H183.593C183.711 205.787 183.826 205.826 183.92 205.898C184.014 205.969 184.082 206.069 184.114 206.183L184.895 209.138C184.918 209.217 184.922 209.3 184.907 209.381C184.892 209.462 184.859 209.539 184.809 209.605C184.76 209.67 184.696 209.724 184.622 209.761C184.549 209.798 184.468 209.817 184.385 209.817Z" fill="#407BFF"/>
<path d="M188.257 209.817H185.45C185.308 209.817 185.173 209.761 185.073 209.662C184.974 209.562 184.917 209.426 184.917 209.285V206.319C184.917 206.249 184.931 206.18 184.958 206.115C184.985 206.051 185.024 205.992 185.073 205.943C185.123 205.893 185.181 205.854 185.246 205.827C185.311 205.801 185.38 205.787 185.45 205.787H187.465C187.583 205.787 187.698 205.826 187.792 205.898C187.886 205.969 187.954 206.069 187.986 206.183L188.767 209.138C188.79 209.217 188.794 209.3 188.779 209.381C188.764 209.462 188.731 209.539 188.681 209.605C188.632 209.67 188.568 209.724 188.494 209.761C188.421 209.798 188.34 209.817 188.257 209.817Z" fill="#407BFF"/>
<path d="M192.152 209.817H189.322C189.18 209.817 189.045 209.761 188.945 209.662C188.845 209.562 188.789 209.426 188.789 209.285V206.319C188.789 206.249 188.803 206.18 188.83 206.115C188.857 206.051 188.896 205.992 188.945 205.943C188.995 205.893 189.053 205.854 189.118 205.827C189.182 205.801 189.252 205.787 189.322 205.787H191.337C191.455 205.787 191.57 205.826 191.664 205.898C191.758 205.969 191.826 206.069 191.858 206.183L192.639 209.138C192.661 209.215 192.666 209.297 192.652 209.376C192.638 209.455 192.607 209.53 192.56 209.596C192.513 209.661 192.452 209.715 192.382 209.753C192.311 209.792 192.232 209.814 192.152 209.817Z" fill="#407BFF"/>
<path d="M196.001 209.817H193.194C193.052 209.817 192.917 209.761 192.817 209.662C192.718 209.562 192.661 209.426 192.661 209.285V206.319C192.661 206.249 192.675 206.18 192.702 206.115C192.729 206.051 192.768 205.992 192.817 205.943C192.867 205.893 192.925 205.854 192.99 205.827C193.055 205.801 193.124 205.787 193.194 205.787H195.209C195.327 205.787 195.442 205.826 195.536 205.898C195.63 205.969 195.698 206.069 195.73 206.183L196.511 209.138C196.534 209.217 196.538 209.3 196.523 209.381C196.508 209.462 196.475 209.539 196.425 209.605C196.376 209.67 196.312 209.724 196.238 209.761C196.165 209.798 196.084 209.817 196.001 209.817Z" fill="#407BFF"/>
<path d="M199.874 209.817H197.066C196.925 209.817 196.789 209.761 196.689 209.662C196.59 209.562 196.534 209.426 196.534 209.285V206.319C196.534 206.249 196.547 206.18 196.574 206.115C196.601 206.051 196.64 205.992 196.689 205.943C196.739 205.893 196.798 205.854 196.862 205.827C196.927 205.801 196.996 205.787 197.066 205.787H199.081C199.199 205.787 199.314 205.826 199.408 205.898C199.502 205.969 199.57 206.069 199.602 206.183L200.383 209.138C200.406 209.217 200.41 209.3 200.395 209.381C200.38 209.462 200.347 209.539 200.297 209.605C200.248 209.67 200.184 209.724 200.11 209.761C200.037 209.798 199.956 209.817 199.874 209.817Z" fill="#407BFF"/>
<path d="M203.745 209.817H200.938C200.797 209.817 200.661 209.761 200.561 209.662C200.462 209.562 200.406 209.426 200.406 209.285V206.319C200.406 206.249 200.419 206.18 200.446 206.115C200.473 206.051 200.512 205.992 200.561 205.943C200.611 205.893 200.669 205.854 200.734 205.827C200.799 205.801 200.868 205.787 200.938 205.787H202.953C203.071 205.787 203.186 205.826 203.28 205.898C203.374 205.969 203.442 206.069 203.474 206.183L204.255 209.138C204.278 209.217 204.282 209.3 204.267 209.381C204.252 209.462 204.219 209.539 204.169 209.605C204.12 209.67 204.056 209.724 203.982 209.761C203.909 209.798 203.828 209.817 203.745 209.817Z" fill="#407BFF"/>
<path d="M207.618 209.817H204.81C204.669 209.817 204.533 209.761 204.433 209.662C204.334 209.562 204.278 209.426 204.278 209.285V206.319C204.278 206.249 204.291 206.18 204.318 206.115C204.345 206.051 204.384 205.992 204.433 205.943C204.483 205.893 204.542 205.854 204.606 205.827C204.671 205.801 204.74 205.787 204.81 205.787H206.87C206.988 205.787 207.103 205.826 207.197 205.898C207.291 205.969 207.359 206.069 207.391 206.183L208.172 209.138C208.196 209.221 208.2 209.308 208.183 209.393C208.166 209.478 208.128 209.557 208.074 209.624C208.019 209.691 207.949 209.743 207.869 209.777C207.79 209.811 207.704 209.825 207.618 209.817Z" fill="#407BFF"/>
<path d="M211.49 209.817H208.682C208.541 209.817 208.405 209.761 208.306 209.662C208.206 209.562 208.15 209.426 208.15 209.285V206.319C208.15 206.249 208.163 206.18 208.19 206.115C208.217 206.051 208.256 205.992 208.306 205.943C208.355 205.893 208.414 205.854 208.478 205.827C208.543 205.801 208.612 205.787 208.682 205.787H210.697C210.815 205.787 210.93 205.826 211.024 205.898C211.118 205.969 211.186 206.069 211.218 206.183L212.01 209.138C212.031 209.218 212.033 209.301 212.017 209.382C212 209.463 211.966 209.539 211.915 209.605C211.865 209.67 211.801 209.723 211.727 209.76C211.653 209.797 211.572 209.817 211.49 209.817Z" fill="#407BFF"/>
<path d="M215.362 209.817H212.531C212.39 209.817 212.255 209.761 212.155 209.662C212.055 209.562 211.999 209.426 211.999 209.285V206.319C211.999 206.249 212.013 206.18 212.04 206.115C212.066 206.051 212.106 205.992 212.155 205.943C212.204 205.893 212.263 205.854 212.328 205.827C212.392 205.801 212.461 205.787 212.531 205.787H214.547C214.665 205.785 214.781 205.824 214.875 205.895C214.969 205.967 215.037 206.069 215.067 206.183L215.86 209.138C215.88 209.216 215.883 209.298 215.868 209.377C215.852 209.456 215.82 209.531 215.772 209.596C215.724 209.661 215.663 209.715 215.592 209.753C215.521 209.791 215.442 209.813 215.362 209.817Z" fill="#407BFF"/>
<g opacity="0.6">
<path opacity="0.6" d="M161.153 209.817H158.345C158.204 209.817 158.069 209.761 157.969 209.662C157.869 209.562 157.813 209.426 157.813 209.285V206.319C157.813 206.249 157.827 206.18 157.854 206.115C157.88 206.051 157.92 205.992 157.969 205.943C158.018 205.893 158.077 205.854 158.142 205.827C158.206 205.801 158.275 205.787 158.345 205.787H160.361C160.478 205.786 160.592 205.825 160.684 205.897C160.776 205.968 160.842 206.069 160.87 206.183L161.663 209.138C161.685 209.217 161.689 209.3 161.675 209.381C161.66 209.462 161.626 209.539 161.577 209.605C161.527 209.67 161.463 209.724 161.39 209.761C161.316 209.798 161.235 209.817 161.153 209.817Z" fill="white"/>
<path opacity="0.6" d="M164.98 209.817H162.172C162.031 209.817 161.896 209.761 161.796 209.662C161.696 209.562 161.64 209.426 161.64 209.285V206.319C161.64 206.249 161.654 206.18 161.68 206.115C161.707 206.051 161.746 205.992 161.796 205.943C161.845 205.893 161.904 205.854 161.968 205.827C162.033 205.801 162.102 205.787 162.172 205.787H164.187C164.304 205.786 164.418 205.825 164.511 205.897C164.603 205.968 164.669 206.069 164.697 206.183L165.489 209.138C165.512 209.217 165.516 209.3 165.501 209.381C165.486 209.462 165.453 209.539 165.404 209.605C165.354 209.67 165.29 209.724 165.217 209.761C165.143 209.798 165.062 209.817 164.98 209.817Z" fill="white"/>
<path opacity="0.6" d="M168.897 209.817H166.112C165.971 209.817 165.835 209.761 165.736 209.662C165.636 209.562 165.58 209.426 165.58 209.285V206.319C165.58 206.249 165.594 206.18 165.62 206.115C165.647 206.051 165.686 205.992 165.736 205.943C165.785 205.893 165.844 205.854 165.908 205.827C165.973 205.801 166.042 205.787 166.112 205.787H168.127C168.244 205.786 168.358 205.825 168.451 205.897C168.543 205.968 168.609 206.069 168.637 206.183L169.429 209.138C169.453 209.219 169.456 209.304 169.44 209.387C169.424 209.47 169.389 209.548 169.337 209.614C169.285 209.68 169.218 209.733 169.142 209.769C169.065 209.804 168.981 209.821 168.897 209.817Z" fill="white"/>
<path opacity="0.6" d="M172.769 209.817H169.961C169.82 209.817 169.685 209.761 169.585 209.662C169.485 209.562 169.429 209.426 169.429 209.285V206.319C169.429 206.249 169.443 206.18 169.47 206.115C169.496 206.051 169.536 205.992 169.585 205.943C169.634 205.893 169.693 205.854 169.758 205.827C169.822 205.801 169.891 205.787 169.961 205.787H171.977C172.094 205.786 172.208 205.825 172.3 205.897C172.393 205.968 172.458 206.069 172.486 206.183L173.279 209.138C173.301 209.217 173.305 209.3 173.291 209.381C173.276 209.462 173.242 209.539 173.193 209.605C173.144 209.67 173.08 209.724 173.006 209.761C172.933 209.798 172.851 209.817 172.769 209.817Z" fill="white"/>
<path opacity="0.6" d="M176.641 209.817H173.833C173.692 209.817 173.557 209.761 173.457 209.662C173.357 209.562 173.301 209.426 173.301 209.285V206.319C173.301 206.249 173.315 206.18 173.342 206.115C173.368 206.051 173.408 205.992 173.457 205.943C173.506 205.893 173.565 205.854 173.63 205.827C173.694 205.801 173.763 205.787 173.833 205.787H175.849C175.967 205.787 176.081 205.826 176.175 205.898C176.269 205.969 176.337 206.069 176.369 206.183L177.151 209.138C177.173 209.217 177.177 209.3 177.163 209.381C177.148 209.462 177.114 209.539 177.065 209.605C177.015 209.67 176.952 209.724 176.878 209.761C176.804 209.798 176.723 209.817 176.641 209.817Z" fill="white"/>
<path opacity="0.6" d="M180.513 209.817H177.705C177.564 209.817 177.429 209.761 177.329 209.662C177.229 209.562 177.173 209.426 177.173 209.285V206.319C177.173 206.249 177.187 206.18 177.214 206.115C177.241 206.051 177.28 205.992 177.329 205.943C177.379 205.893 177.437 205.854 177.502 205.827C177.566 205.801 177.636 205.787 177.705 205.787H179.698C179.816 205.787 179.931 205.826 180.025 205.898C180.119 205.969 180.187 206.069 180.219 206.183L181 209.138C181.022 209.215 181.027 209.297 181.013 209.376C181 209.455 180.968 209.53 180.921 209.596C180.875 209.661 180.813 209.715 180.743 209.753C180.672 209.792 180.594 209.814 180.513 209.817Z" fill="white"/>
<path opacity="0.6" d="M184.385 209.817H181.578C181.436 209.817 181.301 209.761 181.201 209.662C181.101 209.562 181.045 209.426 181.045 209.285V206.319C181.045 206.249 181.059 206.18 181.086 206.115C181.113 206.051 181.152 205.992 181.201 205.943C181.251 205.893 181.309 205.854 181.374 205.827C181.438 205.801 181.508 205.787 181.578 205.787H183.593C183.711 205.787 183.826 205.826 183.92 205.898C184.014 205.969 184.082 206.069 184.114 206.183L184.895 209.138C184.918 209.217 184.922 209.3 184.907 209.381C184.892 209.462 184.859 209.539 184.809 209.605C184.76 209.67 184.696 209.724 184.622 209.761C184.549 209.798 184.468 209.817 184.385 209.817Z" fill="white"/>
<path opacity="0.6" d="M188.257 209.817H185.45C185.308 209.817 185.173 209.761 185.073 209.662C184.974 209.562 184.917 209.426 184.917 209.285V206.319C184.917 206.249 184.931 206.18 184.958 206.115C184.985 206.051 185.024 205.992 185.073 205.943C185.123 205.893 185.181 205.854 185.246 205.827C185.311 205.801 185.38 205.787 185.45 205.787H187.465C187.583 205.787 187.698 205.826 187.792 205.898C187.886 205.969 187.954 206.069 187.986 206.183L188.767 209.138C188.79 209.217 188.794 209.3 188.779 209.381C188.764 209.462 188.731 209.539 188.681 209.605C188.632 209.67 188.568 209.724 188.494 209.761C188.421 209.798 188.34 209.817 188.257 209.817Z" fill="white"/>
<path opacity="0.6" d="M192.152 209.817H189.322C189.18 209.817 189.045 209.761 188.945 209.662C188.845 209.562 188.789 209.426 188.789 209.285V206.319C188.789 206.249 188.803 206.18 188.83 206.115C188.857 206.051 188.896 205.992 188.945 205.943C188.995 205.893 189.053 205.854 189.118 205.827C189.182 205.801 189.252 205.787 189.322 205.787H191.337C191.455 205.787 191.57 205.826 191.664 205.898C191.758 205.969 191.826 206.069 191.858 206.183L192.639 209.138C192.661 209.215 192.666 209.297 192.652 209.376C192.638 209.455 192.607 209.53 192.56 209.596C192.513 209.661 192.452 209.715 192.382 209.753C192.311 209.792 192.232 209.814 192.152 209.817Z" fill="white"/>
<path opacity="0.6" d="M196.001 209.817H193.194C193.052 209.817 192.917 209.761 192.817 209.662C192.718 209.562 192.661 209.426 192.661 209.285V206.319C192.661 206.249 192.675 206.18 192.702 206.115C192.729 206.051 192.768 205.992 192.817 205.943C192.867 205.893 192.925 205.854 192.99 205.827C193.055 205.801 193.124 205.787 193.194 205.787H195.209C195.327 205.787 195.442 205.826 195.536 205.898C195.63 205.969 195.698 206.069 195.73 206.183L196.511 209.138C196.534 209.217 196.538 209.3 196.523 209.381C196.508 209.462 196.475 209.539 196.425 209.605C196.376 209.67 196.312 209.724 196.238 209.761C196.165 209.798 196.084 209.817 196.001 209.817Z" fill="white"/>
<path opacity="0.6" d="M199.874 209.817H197.066C196.925 209.817 196.789 209.761 196.689 209.662C196.59 209.562 196.534 209.426 196.534 209.285V206.319C196.534 206.249 196.547 206.18 196.574 206.115C196.601 206.051 196.64 205.992 196.689 205.943C196.739 205.893 196.798 205.854 196.862 205.827C196.927 205.801 196.996 205.787 197.066 205.787H199.081C199.199 205.787 199.314 205.826 199.408 205.898C199.502 205.969 199.57 206.069 199.602 206.183L200.383 209.138C200.406 209.217 200.41 209.3 200.395 209.381C200.38 209.462 200.347 209.539 200.297 209.605C200.248 209.67 200.184 209.724 200.11 209.761C200.037 209.798 199.956 209.817 199.874 209.817Z" fill="white"/>
<path opacity="0.6" d="M203.745 209.817H200.938C200.797 209.817 200.661 209.761 200.561 209.662C200.462 209.562 200.406 209.426 200.406 209.285V206.319C200.406 206.249 200.419 206.18 200.446 206.115C200.473 206.051 200.512 205.992 200.561 205.943C200.611 205.893 200.669 205.854 200.734 205.827C200.799 205.801 200.868 205.787 200.938 205.787H202.953C203.071 205.787 203.186 205.826 203.28 205.898C203.374 205.969 203.442 206.069 203.474 206.183L204.255 209.138C204.278 209.217 204.282 209.3 204.267 209.381C204.252 209.462 204.219 209.539 204.169 209.605C204.12 209.67 204.056 209.724 203.982 209.761C203.909 209.798 203.828 209.817 203.745 209.817Z" fill="white"/>
<path opacity="0.6" d="M207.618 209.817H204.81C204.669 209.817 204.533 209.761 204.433 209.662C204.334 209.562 204.278 209.426 204.278 209.285V206.319C204.278 206.249 204.291 206.18 204.318 206.115C204.345 206.051 204.384 205.992 204.433 205.943C204.483 205.893 204.542 205.854 204.606 205.827C204.671 205.801 204.74 205.787 204.81 205.787H206.87C206.988 205.787 207.103 205.826 207.197 205.898C207.291 205.969 207.359 206.069 207.391 206.183L208.172 209.138C208.196 209.221 208.2 209.308 208.183 209.393C208.166 209.478 208.128 209.557 208.074 209.624C208.019 209.691 207.949 209.743 207.869 209.777C207.79 209.811 207.704 209.825 207.618 209.817Z" fill="white"/>
<path opacity="0.6" d="M211.49 209.817H208.682C208.541 209.817 208.405 209.761 208.306 209.662C208.206 209.562 208.15 209.426 208.15 209.285V206.319C208.15 206.249 208.163 206.18 208.19 206.115C208.217 206.051 208.256 205.992 208.306 205.943C208.355 205.893 208.414 205.854 208.478 205.827C208.543 205.801 208.612 205.787 208.682 205.787H210.697C210.815 205.787 210.93 205.826 211.024 205.898C211.118 205.969 211.186 206.069 211.218 206.183L212.01 209.138C212.031 209.218 212.033 209.301 212.017 209.382C212 209.463 211.966 209.539 211.915 209.605C211.865 209.67 211.801 209.723 211.727 209.76C211.653 209.797 211.572 209.817 211.49 209.817Z" fill="white"/>
<path opacity="0.6" d="M215.362 209.817H212.531C212.39 209.817 212.255 209.761 212.155 209.662C212.055 209.562 211.999 209.426 211.999 209.285V206.319C211.999 206.249 212.013 206.18 212.04 206.115C212.066 206.051 212.106 205.992 212.155 205.943C212.204 205.893 212.263 205.854 212.328 205.827C212.392 205.801 212.461 205.787 212.531 205.787H214.547C214.665 205.785 214.781 205.824 214.875 205.895C214.969 205.967 215.037 206.069 215.067 206.183L215.86 209.138C215.88 209.216 215.883 209.298 215.868 209.377C215.852 209.456 215.82 209.531 215.772 209.596C215.724 209.661 215.663 209.715 215.592 209.753C215.521 209.791 215.442 209.813 215.362 209.817Z" fill="white"/>
</g>
<path d="M218.181 207.802H155.526V212.467H218.181V207.802Z" fill="#407BFF"/>
<path opacity="0.5" d="M218.181 207.802H155.526V212.467H218.181V207.802Z" fill="white"/>
<path d="M203.734 106.065H196.239L201.776 185.317H209.271C209.561 185.32 209.849 185.262 210.116 185.146C210.382 185.031 210.622 184.862 210.819 184.648C211.016 184.435 211.167 184.183 211.261 183.908C211.355 183.633 211.39 183.342 211.365 183.053L206.134 108.329C206.089 107.72 205.818 107.15 205.374 106.731C204.93 106.312 204.345 106.074 203.734 106.065Z" fill="#407BFF"/>
<path opacity="0.7" d="M203.734 106.065H196.239L201.776 185.317H209.271C209.561 185.32 209.849 185.262 210.116 185.146C210.382 185.031 210.622 184.862 210.819 184.648C211.016 184.435 211.167 184.183 211.261 183.908C211.355 183.633 211.39 183.342 211.365 183.053L206.134 108.329C206.089 107.72 205.818 107.15 205.374 106.731C204.93 106.312 204.345 106.074 203.734 106.065Z" fill="white"/>
<path d="M204.968 185.26H92.5998C91.9901 185.248 91.4066 185.01 90.963 184.591C90.5194 184.173 90.2473 183.604 90.1996 182.996L84.9803 108.273C84.9533 107.984 84.9873 107.693 85.08 107.418C85.1727 107.143 85.3221 106.891 85.5184 106.677C85.7148 106.464 85.9538 106.294 86.2199 106.179C86.4861 106.063 86.7735 106.005 87.0635 106.008H199.432C200.042 106.018 200.627 106.255 201.071 106.675C201.516 107.094 201.787 107.664 201.832 108.273L207.063 182.996C207.088 183.285 207.053 183.577 206.959 183.852C206.864 184.127 206.714 184.379 206.517 184.592C206.32 184.805 206.08 184.975 205.813 185.09C205.547 185.205 205.259 185.263 204.968 185.26Z" fill="#407BFF"/>
<path opacity="0.5" d="M204.968 185.26H92.5998C91.9901 185.248 91.4066 185.01 90.963 184.591C90.5194 184.173 90.2473 183.604 90.1996 182.996L84.9803 108.273C84.9533 107.984 84.9873 107.693 85.08 107.418C85.1727 107.143 85.3221 106.891 85.5184 106.677C85.7148 106.464 85.9538 106.294 86.2199 106.179C86.4861 106.063 86.7735 106.005 87.0635 106.008H199.432C200.042 106.018 200.627 106.255 201.071 106.675C201.516 107.094 201.787 107.664 201.832 108.273L207.063 182.996C207.088 183.285 207.053 183.577 206.959 183.852C206.864 184.127 206.714 184.379 206.517 184.592C206.32 184.805 206.08 184.975 205.813 185.09C205.547 185.205 205.259 185.263 204.968 185.26Z" fill="white"/>
<path d="M109.571 181.898C109.378 181.896 109.193 181.821 109.053 181.689C108.913 181.557 108.827 181.377 108.813 181.185L108.62 178.49C108.612 178.398 108.624 178.306 108.654 178.219C108.684 178.131 108.732 178.052 108.795 177.984C108.858 177.917 108.935 177.864 109.019 177.828C109.104 177.792 109.196 177.775 109.288 177.777C109.482 177.779 109.668 177.853 109.811 177.985C109.953 178.117 110.041 178.297 110.058 178.49L110.239 181.185C110.247 181.276 110.236 181.369 110.206 181.456C110.175 181.543 110.127 181.623 110.064 181.69C110.001 181.758 109.925 181.811 109.84 181.847C109.755 181.882 109.663 181.9 109.571 181.898Z" fill="#407BFF"/>
<path d="M112.9 181.898C112.706 181.893 112.522 181.818 112.38 181.687C112.238 181.556 112.149 181.377 112.13 181.185L111.949 178.49C111.941 178.398 111.952 178.306 111.982 178.219C112.012 178.131 112.061 178.052 112.124 177.984C112.187 177.917 112.263 177.864 112.348 177.828C112.433 177.792 112.524 177.775 112.617 177.777C112.811 177.779 112.997 177.853 113.139 177.985C113.281 178.117 113.37 178.297 113.386 178.49L113.568 181.185C113.576 181.276 113.564 181.369 113.534 181.456C113.504 181.543 113.456 181.623 113.393 181.69C113.33 181.758 113.253 181.811 113.168 181.847C113.083 181.882 112.992 181.9 112.9 181.898Z" fill="#407BFF"/>
<path d="M116.206 181.898C116.012 181.893 115.828 181.818 115.686 181.687C115.544 181.556 115.455 181.377 115.436 181.185L115.255 178.49C115.247 178.398 115.258 178.306 115.288 178.219C115.318 178.131 115.367 178.052 115.43 177.984C115.493 177.917 115.569 177.864 115.654 177.828C115.739 177.792 115.83 177.775 115.923 177.777C116.115 177.779 116.3 177.854 116.441 177.986C116.581 178.118 116.667 178.298 116.681 178.49L116.874 181.185C116.88 181.276 116.867 181.368 116.836 181.454C116.806 181.541 116.757 181.62 116.695 181.687C116.632 181.753 116.556 181.807 116.472 181.843C116.388 181.879 116.297 181.898 116.206 181.898Z" fill="#407BFF"/>
<path d="M105.348 179.837C105.372 180.102 105.34 180.368 105.254 180.619C105.169 180.87 105.031 181.1 104.851 181.294C104.67 181.488 104.451 181.643 104.207 181.747C103.963 181.851 103.7 181.902 103.435 181.898C102.868 181.9 102.321 181.69 101.902 181.308C101.482 180.927 101.221 180.402 101.17 179.837C101.148 179.573 101.182 179.306 101.269 179.055C101.356 178.804 101.495 178.574 101.676 178.38C101.857 178.186 102.077 178.032 102.322 177.928C102.566 177.824 102.83 177.773 103.095 177.777C103.66 177.777 104.204 177.989 104.621 178.37C105.038 178.752 105.297 179.275 105.348 179.837Z" fill="white"/>
<path d="M104.748 179.837C104.764 180.024 104.74 180.213 104.679 180.39C104.618 180.568 104.52 180.731 104.392 180.868C104.264 181.006 104.109 181.115 103.936 181.189C103.764 181.263 103.577 181.3 103.39 181.298C102.996 181.291 102.619 181.137 102.332 180.867C102.045 180.597 101.869 180.23 101.838 179.837C101.821 179.651 101.843 179.463 101.903 179.285C101.963 179.107 102.06 178.945 102.187 178.807C102.314 178.669 102.468 178.56 102.64 178.486C102.813 178.411 102.998 178.374 103.186 178.377C103.581 178.384 103.959 178.537 104.248 178.807C104.536 179.077 104.715 179.444 104.748 179.837Z" fill="#407BFF"/>
<path opacity="0.1" d="M141.204 167.734C140.838 167.73 140.475 167.799 140.137 167.939C139.798 168.078 139.492 168.285 139.236 168.546C138.98 168.808 138.779 169.118 138.647 169.46C138.514 169.801 138.452 170.165 138.464 170.531L138.781 185.249H166.225L164.482 170.531C164.384 169.767 164.014 169.064 163.44 168.55C162.866 168.037 162.127 167.747 161.357 167.734H141.204ZM152.413 184.026C150.881 184.003 149.414 183.411 148.296 182.364C147.178 181.317 146.49 179.892 146.367 178.365C146.302 177.64 146.39 176.909 146.625 176.22C146.861 175.531 147.238 174.9 147.733 174.366C148.229 173.832 148.831 173.408 149.5 173.122C150.17 172.836 150.892 172.694 151.62 172.705C153.15 172.728 154.616 173.321 155.732 174.368C156.848 175.415 157.534 176.84 157.655 178.365C157.719 179.088 157.632 179.816 157.399 180.502C157.165 181.189 156.791 181.819 156.299 182.352C155.808 182.886 155.21 183.31 154.544 183.598C153.879 183.887 153.16 184.032 152.435 184.026H152.413Z" fill="black"/>
<path d="M160.598 170.531C160.56 169.776 160.234 169.064 159.686 168.544C159.138 168.023 158.41 167.733 157.655 167.734H137.536C136.78 167.733 136.053 168.023 135.505 168.544C134.957 169.064 134.63 169.776 134.592 170.531L132.577 212.421H162.614L160.598 170.531ZM147.601 184.026C146.481 184.026 145.387 183.694 144.456 183.072C143.525 182.45 142.799 181.566 142.371 180.532C141.942 179.497 141.83 178.359 142.049 177.261C142.267 176.163 142.806 175.154 143.598 174.363C144.39 173.571 145.398 173.032 146.496 172.813C147.595 172.595 148.733 172.707 149.767 173.136C150.802 173.564 151.686 174.29 152.308 175.22C152.93 176.151 153.262 177.246 153.262 178.366C153.262 179.867 152.665 181.307 151.604 182.368C150.542 183.43 149.102 184.026 147.601 184.026Z" fill="#407BFF"/>
<path opacity="0.3" d="M160.598 170.531C160.56 169.776 160.234 169.064 159.686 168.544C159.138 168.023 158.41 167.733 157.655 167.734H137.536C136.78 167.733 136.053 168.023 135.505 168.544C134.957 169.064 134.63 169.776 134.592 170.531L132.577 212.421H162.614L160.598 170.531ZM147.601 184.026C146.481 184.026 145.387 183.694 144.456 183.072C143.525 182.45 142.799 181.566 142.371 180.532C141.942 179.497 141.83 178.359 142.049 177.261C142.267 176.163 142.806 175.154 143.598 174.363C144.39 173.571 145.398 173.032 146.496 172.813C147.595 172.595 148.733 172.707 149.767 173.136C150.802 173.564 151.686 174.29 152.308 175.22C152.93 176.151 153.262 177.246 153.262 178.366C153.262 179.867 152.665 181.307 151.604 182.368C150.542 183.43 149.102 184.026 147.601 184.026Z" fill="white"/>
<path d="M121.742 212.467H101.827V210.7C101.827 209.877 101.995 209.062 102.321 208.306C102.646 207.55 103.122 206.867 103.719 206.301C104.316 205.734 105.023 205.295 105.795 205.01C106.568 204.725 107.39 204.6 108.212 204.643L116.013 205.074C117.56 205.158 119.016 205.831 120.082 206.956C121.147 208.08 121.741 209.57 121.742 211.119V212.467Z" fill="#407BFF"/>
<path opacity="0.8" d="M121.742 212.467H101.827V210.7C101.827 209.877 101.995 209.062 102.321 208.306C102.646 207.55 103.122 206.867 103.719 206.301C104.316 205.734 105.023 205.295 105.795 205.01C106.568 204.725 107.39 204.6 108.212 204.643L116.013 205.074C117.56 205.158 119.016 205.831 120.082 206.956C121.147 208.08 121.741 209.57 121.742 211.119V212.467Z" fill="white"/>
<path d="M333.352 54.6071L333.82 45.8921L337.582 46.0943C338.229 46.129 338.788 46.2871 339.259 46.5685C339.731 46.8499 340.089 47.2291 340.333 47.706C340.578 48.1829 340.684 48.7305 340.65 49.349C340.617 49.9731 340.449 50.5061 340.146 50.9479C339.847 51.3898 339.44 51.7208 338.928 51.9408C338.418 52.1609 337.831 52.2531 337.167 52.2175L334.921 52.0967L335.019 50.2584L336.79 50.3535C337.068 50.3685 337.307 50.333 337.508 50.247C337.712 50.1584 337.871 50.0261 337.986 49.8502C338.104 49.6744 338.169 49.4632 338.182 49.2163C338.196 48.9667 338.153 48.751 338.055 48.5693C337.96 48.385 337.815 48.2406 337.622 48.1364C337.431 48.0294 337.197 47.9684 336.919 47.9535L336.085 47.9087L335.718 54.7343L333.352 54.6071ZM344.569 55.21L341.216 55.0298L341.684 46.3147L345.003 46.4931C345.9 46.5413 346.665 46.7574 347.299 47.1414C347.935 47.5227 348.414 48.0492 348.733 48.7207C349.056 49.3896 349.192 50.1779 349.144 51.0858C349.095 51.9936 348.876 52.7642 348.486 53.3976C348.096 54.0282 347.567 54.5005 346.899 54.8146C346.231 55.1258 345.454 55.2576 344.569 55.21ZM343.69 53.1484L344.592 53.1969C345.023 53.2201 345.394 53.1703 345.705 53.0476C346.019 52.9251 346.265 52.6978 346.442 52.3659C346.622 52.0342 346.728 51.5648 346.761 50.9577C346.793 50.3506 346.736 49.8724 346.59 49.5231C346.447 49.174 346.221 48.9215 345.914 48.7655C345.609 48.6098 345.23 48.5197 344.776 48.4953L343.942 48.4504L343.69 53.1484ZM350.004 55.5021L350.473 46.7871L356.6 47.1164L356.498 49.0228L352.736 48.8206L352.656 50.3185L356.043 50.5006L355.94 52.407L352.553 52.225L352.37 55.6293L350.004 55.5021Z" fill="white"/>
</svg>
