<svg width="27" height="27" viewBox="0 0 27 27" fill="none" xmlns="http://www.w3.org/2000/svg">
<path d="M18 23.625V21.375C18 20.1815 17.5259 19.0369 16.682 18.193C15.8381 17.3491 14.6935 16.875 13.5 16.875H5.625C4.43153 16.875 3.28693 17.3491 2.44302 18.193C1.59911 19.0369 1.125 20.1815 1.125 21.375V23.625" stroke="white" stroke-width="2.25" stroke-linecap="round" stroke-linejoin="round"/>
<path d="M9.5625 12.375C12.0478 12.375 14.0625 10.3603 14.0625 7.875C14.0625 5.38972 12.0478 3.375 9.5625 3.375C7.07722 3.375 5.0625 5.38972 5.0625 7.875C5.0625 10.3603 7.07722 12.375 9.5625 12.375Z" stroke="white" stroke-width="2.25" stroke-linecap="round" stroke-linejoin="round"/>
<path d="M22.5 9V15.75" stroke="white" stroke-width="2.25" stroke-linecap="round" stroke-linejoin="round"/>
<path d="M25.875 12.375H19.125" stroke="white" stroke-width="2.25" stroke-linecap="round" stroke-linejoin="round"/>
</svg>
