<svg width="72" height="68" viewBox="0 0 72 68" fill="none" xmlns="http://www.w3.org/2000/svg">
<g clip-path="url(#clip0_248_2800)">
<path fill-rule="evenodd" clip-rule="evenodd" d="M67.5 4.53439H27C27 2.0309 24.9851 0 22.5 0H4.5C2.01487 0 0 2.0309 0 4.53439V9.06652V15.8675V18.1342C0 20.6377 2.01487 22.6674 4.5 22.6674H67.5C69.9851 22.6674 72 20.6377 72 18.1342V9.06652C72 6.56302 69.9851 4.53439 67.5 4.53439Z" fill="#CCA352"/>
<path d="M63 9.06641H9C6.51487 9.06641 4.5 11.0962 4.5 13.6008V18.1341C4.5 20.6375 6.51487 22.6673 9 22.6673H63C65.4851 22.6673 67.5 20.6375 67.5 18.1341V13.6008C67.5 11.0962 65.4851 9.06641 63 9.06641Z" fill="white"/>
<path d="M67.5 13.6008H4.5C2.01487 13.6008 0 15.6306 0 18.1341V63.4667C0 65.9702 2.01487 67.9999 4.5 67.9999H67.5C69.9851 67.9999 72 65.9702 72 63.4667V18.1341C72 15.6306 69.9851 13.6008 67.5 13.6008Z" fill="#FFCC66"/>
</g>
<defs>
<clipPath id="clip0_248_2800">
<rect width="72" height="68" fill="white"/>
</clipPath>
</defs>
</svg>
