<svg width="68" height="68" viewBox="0 0 68 68" fill="none" xmlns="http://www.w3.org/2000/svg">
<path d="M61.0148 14.9016L46.2062 0.31875C46.007 0.119531 45.7281 0 45.4359 0H18.1164C13.9859 0 10.6391 3.53281 10.6391 7.88906V37.0016H7V56.7375H10.6391V58.5172C10.6391 62.8602 13.9992 66.4062 18.1164 66.4062H53.8961C58.0266 66.4062 61.3734 62.8734 61.3734 58.5172V15.7648C61.3734 15.4461 61.2539 15.1273 61.0148 14.9016ZM45.0641 2.44375L57.9469 15.1406H50.9344C47.6937 15.1406 45.0641 12.5508 45.0641 9.37656V2.44375ZM59.1156 58.5172C59.1156 61.5586 56.7781 64.0289 53.8961 64.0289H18.1164C15.2344 64.0289 12.8969 61.5586 12.8969 58.5172V56.7375H37.7328C42.5805 56.7375 46.4984 52.3148 46.4984 46.8695C46.4984 41.4242 42.5672 37.0016 37.7328 37.0016H12.8969V7.88906C12.8969 4.84766 15.2344 2.37734 18.1164 2.37734H42.8062V9.37656C42.8062 13.8656 46.4453 17.518 50.9344 17.518H59.1156V58.5172ZM13.9859 51.85V41.8891H17.7977C18.9 41.8891 19.7633 42.168 20.3742 42.7391C20.9852 43.3102 21.3039 44.0539 21.3039 44.9836C21.3039 45.9133 20.9984 46.6703 20.3742 47.2281C19.75 47.7859 18.8867 48.0781 17.7977 48.0781H15.6461V51.85H13.9859ZM23.3227 51.85V41.8891H26.6164C27.8781 41.8891 28.9008 42.2875 29.6977 43.0711C30.4945 43.8547 30.8797 44.8773 30.8797 46.1125V47.6266C30.8797 48.875 30.4812 49.8844 29.6977 50.668C28.9008 51.4516 27.8781 51.85 26.6164 51.85H23.3227ZM38.8086 46.2719V47.6H34.7977V51.85H33.1242V41.8891H39.4992V43.2172H34.7844V46.2586H38.8086V46.2719Z" fill="#52575C"/>
<path d="M39.362 51.9088C41.8753 50.3994 43.1865 48.5276 43.1865 46.2333C43.1865 43.939 41.8753 42.0069 39.362 40.4975C36.8488 38.988 33.0243 38.2031 27.8885 38.2031H10.1865V54.2031H27.8885C33.0243 54.1427 36.7395 53.4182 39.362 51.9088Z" fill="#52575C"/>
<path d="M24.1091 48.984C24.1091 48.6633 24.1611 48.3817 24.2651 48.139C24.3691 47.8963 24.5035 47.6797 24.6681 47.489C24.8328 47.2983 25.0061 47.1207 25.1881 46.956C25.3788 46.7913 25.5565 46.631 25.7211 46.475C25.8858 46.319 26.0201 46.1543 26.1241 45.981C26.2281 45.8077 26.2801 45.6127 26.2801 45.396C26.2801 45.032 26.1328 44.7373 25.8381 44.512C25.5435 44.2867 25.1491 44.174 24.6551 44.174C24.1785 44.174 23.7625 44.2607 23.4071 44.434C23.0605 44.6073 22.7701 44.8543 22.5361 45.175L21.2751 44.356C21.6391 43.862 22.1158 43.4763 22.7051 43.199C23.2945 42.913 23.9921 42.77 24.7981 42.77C25.4308 42.77 25.9855 42.8653 26.4621 43.056C26.9388 43.238 27.3115 43.5067 27.5801 43.862C27.8488 44.2087 27.9831 44.6333 27.9831 45.136C27.9831 45.4827 27.9268 45.786 27.8141 46.046C27.7101 46.306 27.5715 46.5357 27.3981 46.735C27.2335 46.9257 27.0558 47.1077 26.8651 47.281C26.6745 47.4457 26.4925 47.6103 26.3191 47.775C26.1545 47.9397 26.0201 48.1173 25.9161 48.308C25.8121 48.4987 25.7601 48.724 25.7601 48.984H24.1091ZM24.9411 52.091C24.6378 52.091 24.3865 51.9913 24.1871 51.792C23.9965 51.5927 23.9011 51.3543 23.9011 51.077C23.9011 50.7997 23.9965 50.5657 24.1871 50.375C24.3865 50.1757 24.6378 50.076 24.9411 50.076C25.2445 50.076 25.4915 50.1757 25.6821 50.375C25.8728 50.5657 25.9681 50.7997 25.9681 51.077C25.9681 51.3543 25.8728 51.5927 25.6821 51.792C25.4915 51.9913 25.2445 52.091 24.9411 52.091Z" fill="white"/>
</svg>
