<svg width="68" height="68" viewBox="0 0 68 68" fill="none" xmlns="http://www.w3.org/2000/svg">
<path d="M61.0148 14.9016L46.2062 0.31875C46.007 0.119531 45.7281 0 45.4359 0H18.1164C13.9859 0 10.6391 3.53281 10.6391 7.88906V37.0016H7V56.7375H10.6391V58.5172C10.6391 62.8602 13.9992 66.4062 18.1164 66.4062H53.8961C58.0266 66.4062 61.3734 62.8734 61.3734 58.5172V15.7648C61.3734 15.4461 61.2539 15.1273 61.0148 14.9016ZM45.0641 2.44375L57.9469 15.1406H50.9344C47.6937 15.1406 45.0641 12.5508 45.0641 9.37656V2.44375ZM59.1156 58.5172C59.1156 61.5586 56.7781 64.0289 53.8961 64.0289H18.1164C15.2344 64.0289 12.8969 61.5586 12.8969 58.5172V56.7375H37.7328C42.5805 56.7375 46.4984 52.3148 46.4984 46.8695C46.4984 41.4242 42.5672 37.0016 37.7328 37.0016H12.8969V7.88906C12.8969 4.84766 15.2344 2.37734 18.1164 2.37734H42.8062V9.37656C42.8062 13.8656 46.4453 17.518 50.9344 17.518H59.1156V58.5172ZM13.9859 51.85V41.8891H17.7977C18.9 41.8891 19.7633 42.168 20.3742 42.7391C20.9852 43.3102 21.3039 44.0539 21.3039 44.9836C21.3039 45.9133 20.9984 46.6703 20.3742 47.2281C19.75 47.7859 18.8867 48.0781 17.7977 48.0781H15.6461V51.85H13.9859ZM23.3227 51.85V41.8891H26.6164C27.8781 41.8891 28.9008 42.2875 29.6977 43.0711C30.4945 43.8547 30.8797 44.8773 30.8797 46.1125V47.6266C30.8797 48.875 30.4812 49.8844 29.6977 50.668C28.9008 51.4516 27.8781 51.85 26.6164 51.85H23.3227ZM38.8086 46.2719V47.6H34.7977V51.85H33.1242V41.8891H39.4992V43.2172H34.7844V46.2586H38.8086V46.2719Z" fill="#2243BD"/>
<path d="M39.362 51.9088C41.8753 50.3994 43.1865 48.5276 43.1865 46.2333C43.1865 43.939 41.8753 42.0069 39.362 40.4975C36.8488 38.988 33.0243 38.2031 27.8885 38.2031H10.1865V54.2031H27.8885C33.0243 54.1427 36.7395 53.4182 39.362 51.9088Z" fill="#2243BD"/>
<path d="M10.8441 51.2031V42.1031H14.8221C15.8101 42.1031 16.6767 42.2938 17.4221 42.6751C18.1674 43.0565 18.7481 43.5851 19.1641 44.2611C19.5801 44.9371 19.7881 45.7345 19.7881 46.6531C19.7881 47.5631 19.5801 48.3605 19.1641 49.0451C18.7481 49.7211 18.1674 50.2498 17.4221 50.6311C16.6767 51.0125 15.8101 51.2031 14.8221 51.2031H10.8441ZM12.5341 49.7731H14.7441C15.4287 49.7731 16.0181 49.6431 16.5121 49.3831C17.0147 49.1231 17.4004 48.7591 17.6691 48.2911C17.9464 47.8231 18.0851 47.2771 18.0851 46.6531C18.0851 46.0205 17.9464 45.4745 17.6691 45.0151C17.4004 44.5471 17.0147 44.1831 16.5121 43.9231C16.0181 43.6631 15.4287 43.5331 14.7441 43.5331H12.5341V49.7731ZM25.8483 51.3331C25.1376 51.3331 24.4833 51.2161 23.8853 50.9821C23.2873 50.7481 22.7673 50.4231 22.3253 50.0071C21.8833 49.5825 21.541 49.0885 21.2983 48.5251C21.0556 47.9531 20.9343 47.3291 20.9343 46.6531C20.9343 45.9771 21.0556 45.3575 21.2983 44.7941C21.541 44.2221 21.8833 43.7281 22.3253 43.3121C22.7673 42.8875 23.2873 42.5581 23.8853 42.3241C24.4833 42.0901 25.1333 41.9731 25.8353 41.9731C26.546 41.9731 27.196 42.0901 27.7853 42.3241C28.3833 42.5581 28.9033 42.8875 29.3453 43.3121C29.7873 43.7281 30.1296 44.2221 30.3723 44.7941C30.615 45.3575 30.7363 45.9771 30.7363 46.6531C30.7363 47.3291 30.615 47.9531 30.3723 48.5251C30.1296 49.0971 29.7873 49.5911 29.3453 50.0071C28.9033 50.4231 28.3833 50.7481 27.7853 50.9821C27.196 51.2161 26.5503 51.3331 25.8483 51.3331ZM25.8353 49.8511C26.2946 49.8511 26.7193 49.7731 27.1093 49.6171C27.4993 49.4611 27.8373 49.2401 28.1233 48.9541C28.4093 48.6595 28.6303 48.3215 28.7863 47.9401C28.951 47.5501 29.0333 47.1211 29.0333 46.6531C29.0333 46.1851 28.951 45.7605 28.7863 45.3791C28.6303 44.9891 28.4093 44.6511 28.1233 44.3651C27.8373 44.0705 27.4993 43.8451 27.1093 43.6891C26.7193 43.5331 26.2946 43.4551 25.8353 43.4551C25.376 43.4551 24.9513 43.5331 24.5613 43.6891C24.18 43.8451 23.842 44.0705 23.5473 44.3651C23.2613 44.6511 23.036 44.9891 22.8713 45.3791C22.7153 45.7605 22.6373 46.1851 22.6373 46.6531C22.6373 47.1125 22.7153 47.5371 22.8713 47.9271C23.036 48.3171 23.2613 48.6595 23.5473 48.9541C23.8333 49.2401 24.1713 49.4611 24.5613 49.6171C24.9513 49.7731 25.376 49.8511 25.8353 49.8511ZM36.7397 51.3331C36.0463 51.3331 35.4007 51.2205 34.8027 50.9951C34.2133 50.7611 33.6977 50.4361 33.2557 50.0201C32.8223 49.5955 32.4843 49.0971 32.2417 48.5251C31.999 47.9531 31.8777 47.3291 31.8777 46.6531C31.8777 45.9771 31.999 45.3531 32.2417 44.7811C32.4843 44.2091 32.8267 43.7151 33.2687 43.2991C33.7107 42.8745 34.2263 42.5495 34.8157 42.3241C35.405 42.0901 36.0507 41.9731 36.7527 41.9731C37.498 41.9731 38.1783 42.1031 38.7937 42.3631C39.409 42.6145 39.929 42.9915 40.3537 43.4941L39.2617 44.5211C38.9323 44.1658 38.564 43.9015 38.1567 43.7281C37.7493 43.5461 37.3073 43.4551 36.8307 43.4551C36.354 43.4551 35.9163 43.5331 35.5177 43.6891C35.1277 43.8451 34.7853 44.0661 34.4907 44.3521C34.2047 44.6381 33.9793 44.9761 33.8147 45.3661C33.6587 45.7561 33.5807 46.1851 33.5807 46.6531C33.5807 47.1211 33.6587 47.5501 33.8147 47.9401C33.9793 48.3301 34.2047 48.6681 34.4907 48.9541C34.7853 49.2401 35.1277 49.4611 35.5177 49.6171C35.9163 49.7731 36.354 49.8511 36.8307 49.8511C37.3073 49.8511 37.7493 49.7645 38.1567 49.5911C38.564 49.4091 38.9323 49.1361 39.2617 48.7721L40.3537 49.8121C39.929 50.3061 39.409 50.6831 38.7937 50.9431C38.1783 51.2031 37.4937 51.3331 36.7397 51.3331Z" fill="white"/>
</svg>
