<svg width="68" height="68" viewBox="0 0 68 68" fill="none" xmlns="http://www.w3.org/2000/svg">
<path d="M61.0148 14.9016L46.2062 0.31875C46.007 0.119531 45.7281 0 45.4359 0H18.1164C13.9859 0 10.6391 3.53281 10.6391 7.88906V37.0016H7V56.7375H10.6391V58.5172C10.6391 62.8602 13.9992 66.4062 18.1164 66.4062H53.8961C58.0266 66.4062 61.3734 62.8734 61.3734 58.5172V15.7648C61.3734 15.4461 61.2539 15.1273 61.0148 14.9016ZM45.0641 2.44375L57.9469 15.1406H50.9344C47.6937 15.1406 45.0641 12.5508 45.0641 9.37656V2.44375ZM59.1156 58.5172C59.1156 61.5586 56.7781 64.0289 53.8961 64.0289H18.1164C15.2344 64.0289 12.8969 61.5586 12.8969 58.5172V56.7375H37.7328C42.5805 56.7375 46.4984 52.3148 46.4984 46.8695C46.4984 41.4242 42.5672 37.0016 37.7328 37.0016H12.8969V7.88906C12.8969 4.84766 15.2344 2.37734 18.1164 2.37734H42.8062V9.37656C42.8062 13.8656 46.4453 17.518 50.9344 17.518H59.1156V58.5172ZM13.9859 51.85V41.8891H17.7977C18.9 41.8891 19.7633 42.168 20.3742 42.7391C20.9852 43.3102 21.3039 44.0539 21.3039 44.9836C21.3039 45.9133 20.9984 46.6703 20.3742 47.2281C19.75 47.7859 18.8867 48.0781 17.7977 48.0781H15.6461V51.85H13.9859ZM23.3227 51.85V41.8891H26.6164C27.8781 41.8891 28.9008 42.2875 29.6977 43.0711C30.4945 43.8547 30.8797 44.8773 30.8797 46.1125V47.6266C30.8797 48.875 30.4812 49.8844 29.6977 50.668C28.9008 51.4516 27.8781 51.85 26.6164 51.85H23.3227ZM38.8086 46.2719V47.6H34.7977V51.85H33.1242V41.8891H39.4992V43.2172H34.7844V46.2586H38.8086V46.2719Z" fill="#d04423"/>
<path d="M39.362 51.9088C41.8753 50.3994 43.1865 48.5276 43.1865 46.2333C43.1865 43.939 41.8753 42.0069 39.362 40.4975C36.8488 38.988 33.0243 38.2031 27.8885 38.2031H10.1865V54.2031H27.8885C33.0243 54.1427 36.7395 53.4182 39.362 51.9088Z" fill="#d04423"/>
<path d="M13.6038 51.2031V42.1031H15.2938V51.2031H13.6038ZM17.7552 51.2031V42.1031H19.1462L23.1242 48.7461H22.3962L26.3092 42.1031H27.7002L27.7132 51.2031H26.1142L26.1012 44.6121H26.4392L23.1112 50.1631H22.3572L18.9772 44.6121H19.3672V51.2031H17.7552ZM34.4222 51.3331C33.7116 51.3331 33.0572 51.2205 32.4592 50.9951C31.8699 50.7611 31.3542 50.4361 30.9122 50.0201C30.4702 49.5955 30.1279 49.0971 29.8852 48.5251C29.6426 47.9531 29.5212 47.3291 29.5212 46.6531C29.5212 45.9771 29.6426 45.3531 29.8852 44.7811C30.1279 44.2091 30.4702 43.7151 30.9122 43.2991C31.3629 42.8745 31.8872 42.5495 32.4852 42.3241C33.0832 42.0901 33.7376 41.9731 34.4482 41.9731C35.2196 41.9731 35.9129 42.0988 36.5282 42.3501C37.1522 42.6015 37.6766 42.9698 38.1012 43.4551L37.0352 44.4951C36.6799 44.1398 36.2942 43.8798 35.8782 43.7151C35.4709 43.5418 35.0202 43.4551 34.5262 43.4551C34.0496 43.4551 33.6076 43.5331 33.2002 43.6891C32.7929 43.8451 32.4419 44.0661 32.1472 44.3521C31.8526 44.6381 31.6229 44.9761 31.4582 45.3661C31.3022 45.7561 31.2242 46.1851 31.2242 46.6531C31.2242 47.1125 31.3022 47.5371 31.4582 47.9271C31.6229 48.3171 31.8526 48.6595 32.1472 48.9541C32.4419 49.2401 32.7886 49.4611 33.1872 49.6171C33.5859 49.7731 34.0279 49.8511 34.5132 49.8511C34.9639 49.8511 35.3972 49.7818 35.8132 49.6431C36.2379 49.4958 36.6409 49.2531 37.0222 48.9151L37.9842 50.1761C37.5076 50.5575 36.9529 50.8478 36.3202 51.0471C35.6962 51.2378 35.0636 51.3331 34.4222 51.3331ZM36.3852 49.9551V46.5491H37.9842V50.1761L36.3852 49.9551Z" fill="white"/>
</svg>
