<svg width="68" height="68" viewBox="0 0 68 68" fill="none" xmlns="http://www.w3.org/2000/svg">
<path d="M61.0148 14.9016L46.2062 0.31875C46.007 0.119531 45.7281 0 45.4359 0H18.1164C13.9859 0 10.6391 3.53281 10.6391 7.88906V37.0016H7V56.7375H10.6391V58.5172C10.6391 62.8602 13.9992 66.4062 18.1164 66.4062H53.8961C58.0266 66.4062 61.3734 62.8734 61.3734 58.5172V15.7648C61.3734 15.4461 61.2539 15.1273 61.0148 14.9016ZM45.0641 2.44375L57.9469 15.1406H50.9344C47.6937 15.1406 45.0641 12.5508 45.0641 9.37656V2.44375ZM59.1156 58.5172C59.1156 61.5586 56.7781 64.0289 53.8961 64.0289H18.1164C15.2344 64.0289 12.8969 61.5586 12.8969 58.5172V56.7375H37.7328C42.5805 56.7375 46.4984 52.3148 46.4984 46.8695C46.4984 41.4242 42.5672 37.0016 37.7328 37.0016H12.8969V7.88906C12.8969 4.84766 15.2344 2.37734 18.1164 2.37734H42.8062V9.37656C42.8062 13.8656 46.4453 17.518 50.9344 17.518H59.1156V58.5172ZM13.9859 51.85V41.8891H17.7977C18.9 41.8891 19.7633 42.168 20.3742 42.7391C20.9852 43.3102 21.3039 44.0539 21.3039 44.9836C21.3039 45.9133 20.9984 46.6703 20.3742 47.2281C19.75 47.7859 18.8867 48.0781 17.7977 48.0781H15.6461V51.85H13.9859ZM23.3227 51.85V41.8891H26.6164C27.8781 41.8891 28.9008 42.2875 29.6977 43.0711C30.4945 43.8547 30.8797 44.8773 30.8797 46.1125V47.6266C30.8797 48.875 30.4812 49.8844 29.6977 50.668C28.9008 51.4516 27.8781 51.85 26.6164 51.85H23.3227ZM38.8086 46.2719V47.6H34.7977V51.85H33.1242V41.8891H39.4992V43.2172H34.7844V46.2586H38.8086V46.2719Z" fill="#2DCE89"/>
<path d="M39.362 51.9088C41.8753 50.3994 43.1865 48.5276 43.1865 46.2333C43.1865 43.939 41.8753 42.0069 39.362 40.4975C36.8488 38.988 33.0243 38.2031 27.8885 38.2031H10.1865V54.2031H27.8885C33.0243 54.1427 36.7395 53.4182 39.362 51.9088Z" fill="#2DCE89"/>
<path d="M13.5018 51.2031L17.3368 45.9251V47.1991L13.6838 42.1031H15.5948L18.3118 45.8731L17.5318 45.8861L20.2228 42.1031H22.0558L18.4288 47.1081V45.8861L22.2898 51.2031H20.3398L17.4798 47.1991H18.2468L15.4258 51.2031H13.5018ZM23.3158 51.2031V42.1031H25.0058V49.7731H29.7638V51.2031H23.3158ZM33.8555 51.3331C33.1448 51.3331 32.4645 51.2335 31.8145 51.0341C31.1645 50.8261 30.6488 50.5618 30.2675 50.2411L30.8525 48.9281C31.2165 49.2141 31.6672 49.4525 32.2045 49.6431C32.7418 49.8338 33.2922 49.9291 33.8555 49.9291C34.3322 49.9291 34.7178 49.8771 35.0125 49.7731C35.3072 49.6691 35.5238 49.5305 35.6625 49.3571C35.8012 49.1751 35.8705 48.9715 35.8705 48.7461C35.8705 48.4688 35.7708 48.2478 35.5715 48.0831C35.3722 47.9098 35.1122 47.7755 34.7915 47.6801C34.4795 47.5761 34.1285 47.4808 33.7385 47.3941C33.3572 47.3075 32.9715 47.2078 32.5815 47.0951C32.2002 46.9738 31.8492 46.8221 31.5285 46.6401C31.2165 46.4495 30.9608 46.1981 30.7615 45.8861C30.5622 45.5741 30.4625 45.1755 30.4625 44.6901C30.4625 44.1961 30.5925 43.7455 30.8525 43.3381C31.1212 42.9221 31.5242 42.5928 32.0615 42.3501C32.6075 42.0988 33.2965 41.9731 34.1285 41.9731C34.6745 41.9731 35.2162 42.0425 35.7535 42.1811C36.2908 42.3198 36.7588 42.5191 37.1575 42.7791L36.6245 44.0921C36.2172 43.8495 35.7968 43.6718 35.3635 43.5591C34.9302 43.4378 34.5142 43.3771 34.1155 43.3771C33.6475 43.3771 33.2662 43.4335 32.9715 43.5461C32.6855 43.6588 32.4732 43.8061 32.3345 43.9881C32.2045 44.1701 32.1395 44.3781 32.1395 44.6121C32.1395 44.8895 32.2348 45.1148 32.4255 45.2881C32.6248 45.4528 32.8805 45.5828 33.1925 45.6781C33.5132 45.7735 33.8685 45.8688 34.2585 45.9641C34.6485 46.0508 35.0342 46.1505 35.4155 46.2631C35.8055 46.3758 36.1565 46.5231 36.4685 46.7051C36.7892 46.8871 37.0448 47.1341 37.2355 47.4461C37.4348 47.7581 37.5345 48.1525 37.5345 48.6291C37.5345 49.1145 37.4002 49.5651 37.1315 49.9811C36.8715 50.3885 36.4685 50.7178 35.9225 50.9691C35.3765 51.2118 34.6875 51.3331 33.8555 51.3331Z" fill="white"/>
</svg>
