<svg width="68" height="68" viewBox="0 0 68 68" fill="none" xmlns="http://www.w3.org/2000/svg">
<path d="M60.8283 15.6984L46.0197 1.11562C45.8205 0.916406 45.5416 0.796875 45.2494 0.796875H17.9299C13.7994 0.796875 10.4525 4.32969 10.4525 8.68594V37.7984H6.81348V57.5344H10.4525V59.3141C10.4525 63.657 13.8127 67.2031 17.9299 67.2031H53.7096C57.84 67.2031 61.1869 63.6703 61.1869 59.3141V16.5617C61.1869 16.243 61.0674 15.9242 60.8283 15.6984ZM44.8775 3.24062L57.7603 15.9375H50.7478C47.5072 15.9375 44.8775 13.3477 44.8775 10.1734V3.24062ZM58.9291 59.3141C58.9291 62.3555 56.5916 64.8258 53.7096 64.8258H17.9299C15.0479 64.8258 12.7104 62.3555 12.7104 59.3141V57.5344H37.5463C42.3939 57.5344 46.3119 53.1117 46.3119 47.6664C46.3119 42.2211 42.3807 37.7984 37.5463 37.7984H12.7104V8.68594C12.7104 5.64453 15.0479 3.17422 17.9299 3.17422H42.6197V10.1734C42.6197 14.6625 46.2588 18.3148 50.7478 18.3148H58.9291V59.3141ZM13.7994 52.6469V42.6859H17.6111C18.7135 42.6859 19.5768 42.9648 20.1877 43.5359C20.7986 44.107 21.1174 44.8508 21.1174 45.7805C21.1174 46.7102 20.8119 47.4672 20.1877 48.025C19.5635 48.5828 18.7002 48.875 17.6111 48.875H15.4596V52.6469H13.7994ZM23.1361 52.6469V42.6859H26.4299C27.6916 42.6859 28.7143 43.0844 29.5111 43.868C30.308 44.6516 30.6932 45.6742 30.6932 46.9094V48.4234C30.6932 49.6719 30.2947 50.6813 29.5111 51.4648C28.7143 52.2484 27.6916 52.6469 26.4299 52.6469H23.1361ZM38.6221 47.0687V48.3969H34.6111V52.6469H32.9377V42.6859H39.3127V44.0141H34.5978V47.0555H38.6221V47.0687Z" fill="#FF0000"/>
<path d="M19.0061 47.0422C19.3115 46.7102 19.4709 46.2984 19.4709 45.7937C19.4709 45.2891 19.3115 44.8641 19.0061 44.532C18.7006 44.2 18.2357 44.0273 17.6115 44.0273H15.46V47.5469H17.6115C18.2357 47.5336 18.6873 47.3742 19.0061 47.0422Z" fill="#FF0000"/>
<path d="M26.4295 44.0273H24.7959V51.332H26.4295C27.2264 51.332 27.8639 51.0664 28.3287 50.5219C28.7936 49.9773 29.0326 49.2867 29.0326 48.4367V46.9094C29.0326 46.0727 28.7936 45.382 28.3287 44.8375C27.8639 44.293 27.2264 44.0273 26.4295 44.0273Z" fill="#FF0000"/>
</svg>
