<svg xmlns="http://www.w3.org/2000/svg" version="1.1" xmlns:xlink="http://www.w3.org/1999/xlink" width="512" height="512" x="0" y="0" viewBox="0 0 512 512" style="enable-background:new 0 0 512 512" xml:space="preserve" class=""><g><path d="M493.23 150.654 344.95 2.345a7.995 7.995 0 0 0-5.653-2.343H171.343c-39.091 0-70.895 31.804-70.895 70.896v140.314h-62.22c-12.021 0-21.8 9.779-21.8 21.799V358.33c0 12.02 9.779 21.799 21.8 21.799h62.22v60.973c0 39.092 31.804 70.896 70.895 70.896h253.332c39.092 0 70.896-31.804 70.896-70.896V156.305c0-2.12-.843-4.152-2.341-5.651zM347.291 27.298 468.28 148.311H355.284c-4.407 0-7.993-3.599-7.993-8.021zM32.417 358.331v-125.32a5.817 5.817 0 0 1 5.812-5.811h341.603a5.817 5.817 0 0 1 5.811 5.811V358.33a5.817 5.817 0 0 1-5.811 5.811H38.229a5.817 5.817 0 0 1-5.812-5.81zm392.258 137.678H171.343c-30.275 0-54.906-24.631-54.906-54.907v-60.973h263.395c12.02 0 21.799-9.779 21.799-21.799V233.011c0-12.02-9.779-21.799-21.799-21.799H116.437V70.898c0-30.276 24.631-54.907 54.906-54.907h159.959V140.29c0 13.239 10.758 24.01 23.981 24.01h124.299v276.803c.001 30.275-24.63 54.906-54.907 54.906zM129.929 244.803h-25.767a7.994 7.994 0 0 0-7.994 7.994v85.776a7.994 7.994 0 1 0 15.988 0v-25.172h17.772c18.616 0 33.762-15.146 33.762-33.761v-1.077c.001-18.614-15.145-33.76-33.761-33.76zm17.774 34.838c0 9.8-7.973 17.772-17.773 17.772h-17.772v-36.622h17.772c9.801 0 17.773 7.973 17.773 17.772zm64.205-34.838H186.14a7.994 7.994 0 0 0-7.994 7.994v85.776a7.994 7.994 0 1 0 15.988 0v-25.172h17.773c18.615 0 33.761-15.146 33.761-33.761v-1.077c0-18.614-15.145-33.76-33.76-33.76zm17.772 34.838c0 9.8-7.973 17.772-17.772 17.772h-17.773v-36.622h17.773c9.8 0 17.772 7.973 17.772 17.772zm92.212-26.844a7.994 7.994 0 0 1-7.994 7.994h-17.772v77.782a7.994 7.994 0 1 1-15.988 0v-77.782h-17.772a7.994 7.994 0 1 1 0-15.988h51.533a7.994 7.994 0 0 1 7.993 7.994z" fill="#F45F30" opacity="1" data-original="#000000" class=""></path></g></svg>