<svg xmlns="http://www.w3.org/2000/svg" version="1.1" xmlns:xlink="http://www.w3.org/1999/xlink" width="512" height="512" x="0" y="0" viewBox="0 0 512 512" style="enable-background:new 0 0 512 512" xml:space="preserve" class=""><g><g fill="#333"><path d="M468 117.499 357.944 8H115.581C98.792 8 85 20.858 85 37.646v156.6c0-.03 1.023-.246 1.703-.246H100V37.646C100 29.265 107.2 23 115.581 23h235.583L356 27.535v61.593C356 105.847 369.596 119 386.315 119h61.593l4.092 4.795v349.553c0 8.381-5.822 15.652-14.203 15.652H115.581C107.2 489 100 481.728 100 473.348V413H86.703c-.68 0-1.703.037-1.703.007v60.34C85 490.136 98.792 504 115.581 504h322.217C454.586 504 468 490.136 468 473.348zM386.315 104C377.934 104 371 97.509 371 89.128V43.941L431.502 104z" fill="#333333" opacity="1" data-original="#333333" class=""></path><path d="M373.602 209H74.398C57.61 209 44 222.61 44 239.398v127.204C44 383.39 57.61 397 74.398 397h299.204C390.39 397 404 383.39 404 366.602V239.398C404 222.61 390.39 209 373.602 209zM172 278h-24v75h-26v-75H99v-21h73zm70.285 75L223.5 322.878 204.913 353H175.45l31.968-49.12L177.361 257h28.87l17.401 29.793L240.374 257h29.727l-30.518 48.923L272.408 353zM349 278h-23v75h-26v-75h-24v-21h73z" fill="#333333" opacity="1" data-original="#333333" class=""></path></g></g></svg>