<svg width="50" height="50" viewBox="0 0 50 50" fill="none" xmlns="http://www.w3.org/2000/svg">
<path d="M39.5833 22.9167H10.4167C8.11548 22.9167 6.25 24.7822 6.25 27.0834V41.6667C6.25 43.9679 8.11548 45.8334 10.4167 45.8334H39.5833C41.8845 45.8334 43.75 43.9679 43.75 41.6667V27.0834C43.75 24.7822 41.8845 22.9167 39.5833 22.9167Z" stroke="#407BFF" stroke-width="4.16667" stroke-linecap="round" stroke-linejoin="round"/>
<path d="M14.583 22.9166V14.5832C14.5804 12 15.5378 9.50795 17.2692 7.59086C19.0007 5.67378 21.3827 4.46844 23.9528 4.20883C26.523 3.94922 29.0979 4.65386 31.1777 6.18596C33.2576 7.71807 34.694 9.96832 35.208 12.4999V22.9166" stroke="#407BFF" stroke-width="4.16667" stroke-linecap="round" stroke-linejoin="round"/>
</svg>
