<svg preserveAspectRatio="none" width="105" height="26" viewBox="0 0 105 26" fill="none" xmlns="http://www.w3.org/2000/svg">
<rect width="104.185" height="25.9433" fill="white"/>
<path d="M0 3.64286H1.66667H15" stroke="#F45F30" stroke-width="0.857143" stroke-linecap="round" stroke-linejoin="round"/>
<path d="M3 3.85735C3 3.38397 2.61624 3.00021 2.14286 3.00021V3.85735H3ZM3 15.8574V3.85735H2.14286V15.8574H3ZM3.82653 16.7145C3.38381 16.7145 3 16.3446 3 15.8574H2.14286C2.14286 16.8049 2.8974 17.5716 3.82653 17.5716V16.7145ZM12.2449 16.7145H3.82653V17.5716H12.2449V16.7145ZM13.0714 15.8574C13.0714 16.3446 12.6876 16.7145 12.2449 16.7145V17.5716C13.174 17.5716 13.9286 16.8049 13.9286 15.8574H13.0714ZM13.0714 3.85735V15.8574H13.9286V3.85735H13.0714ZM13.9286 3.00021C13.4552 3.00021 13.0714 3.38396 13.0714 3.85735H13.9286H13.9286V3.00021ZM14.7857 3.85735C14.7857 3.38396 14.402 3.00021 13.9286 3.00021V3.85735H13.9286H14.7857ZM14.7857 15.8574V3.85735H13.9286V15.8574H14.7857ZM12.2449 18.4288C13.6631 18.4288 14.7857 17.2624 14.7857 15.8574H13.9286C13.9286 16.8046 13.1743 17.5716 12.2449 17.5716V18.4288ZM3.82653 18.4288H12.2449V17.5716H3.82653V18.4288ZM1.28571 15.8574C1.28571 17.2624 2.40834 18.4288 3.82653 18.4288V17.5716C2.8971 17.5716 2.14286 16.8046 2.14286 15.8574H1.28571ZM1.28571 3.85735V15.8574H2.14286V3.85735H1.28571ZM2.14286 3.00021C1.66947 3.00021 1.28571 3.38397 1.28571 3.85735H2.14286V3.00021ZM5.52476 2.14286C5.52476 1.65559 5.90857 1.28571 6.35129 1.28571V0.428571C5.42216 0.428571 4.66762 1.19533 4.66762 2.14286H5.52476ZM5.52476 3.85714V2.14286H4.66762V3.85714H5.52476ZM4.66762 4.71429C5.14101 4.71429 5.52476 4.33053 5.52476 3.85714H4.66762V3.85714V4.71429ZM3.81048 3.85714C3.81048 4.33053 4.19423 4.71429 4.66762 4.71429V3.85714V3.85714H3.81048ZM3.81048 2.14286V3.85714H4.66762V2.14286H3.81048ZM6.35129 -0.428571C4.93311 -0.428571 3.81048 0.73777 3.81048 2.14286H4.66762C4.66762 1.19564 5.42187 0.428571 6.35129 0.428571V-0.428571ZM9.71864 -0.428571H6.35129V0.428571H9.71864V-0.428571ZM12.2595 2.14286C12.2595 0.73777 11.1368 -0.428571 9.71864 -0.428571V0.428571C10.6481 0.428571 11.4023 1.19564 11.4023 2.14286H12.2595ZM12.2595 3.85714V2.14286H11.4023V3.85714H12.2595ZM11.4023 4.71429C11.8757 4.71429 12.2595 4.33053 12.2595 3.85714H11.4023L11.4023 3.85714V4.71429ZM10.5452 3.85714C10.5452 4.33053 10.9289 4.71429 11.4023 4.71429V3.85714L11.4023 3.85714H10.5452ZM10.5452 2.14286V3.85714H11.4023V2.14286H10.5452ZM9.71864 1.28571C10.1614 1.28571 10.5452 1.65559 10.5452 2.14286H11.4023C11.4023 1.19533 10.6478 0.428571 9.71864 0.428571V1.28571ZM6.35129 1.28571H9.71864V0.428571H6.35129V1.28571Z" fill="#F45F30"/>
<path d="M0 20.4288H1.11111H10" stroke="#F45F30" stroke-width="0.571429" stroke-linecap="round" stroke-linejoin="round"/>
<path d="M2.00005 20.5718C2.00005 20.2562 1.74421 20.0004 1.42862 20.0004V20.5718H2.00005ZM2.00005 28.5718V20.5718H1.42862V28.5718H2.00005ZM2.55107 29.1432C2.25592 29.1432 2.00005 28.8966 2.00005 28.5718H1.42862C1.42862 29.2035 1.93165 29.7146 2.55107 29.7146V29.1432ZM8.16331 29.1432H2.55107V29.7146H8.16331V29.1432ZM8.71433 28.5718C8.71433 28.8966 8.45846 29.1432 8.16331 29.1432V29.7146C8.78273 29.7146 9.28576 29.2035 9.28576 28.5718H8.71433ZM8.71433 20.5718V28.5718H9.28576V20.5718H8.71433ZM9.28576 20.0004C8.97017 20.0004 8.71433 20.2562 8.71433 20.5718H9.28576H9.28576V20.0004ZM9.85719 20.5718C9.85719 20.2562 9.60135 20.0004 9.28576 20.0004V20.5718H9.28576H9.85719ZM9.85719 28.5718V20.5718H9.28576V28.5718H9.85719ZM8.16331 30.2861C9.10877 30.2861 9.85719 29.5085 9.85719 28.5718H9.28576C9.28576 29.2033 8.78293 29.7146 8.16331 29.7146V30.2861ZM2.55107 30.2861H8.16331V29.7146H2.55107V30.2861ZM0.857189 28.5718C0.857189 29.5085 1.60561 30.2861 2.55107 30.2861V29.7146C1.93145 29.7146 1.42862 29.2033 1.42862 28.5718H0.857189ZM0.857189 20.5718V28.5718H1.42862V20.5718H0.857189ZM1.42862 20.0004C1.11303 20.0004 0.857189 20.2562 0.857189 20.5718H1.42862V20.0004ZM3.68299 19.4288C3.68299 19.1039 3.93886 18.8574 4.23401 18.8574V18.2859C3.61459 18.2859 3.11156 18.7971 3.11156 19.4288H3.68299ZM3.68299 20.5716V19.4288H3.11156V20.5716H3.68299ZM3.11156 21.1431C3.42715 21.1431 3.68299 20.8872 3.68299 20.5716H3.11156V20.5716V21.1431ZM2.54013 20.5716C2.54013 20.8872 2.79597 21.1431 3.11156 21.1431V20.5716V20.5716H2.54013ZM2.54013 19.4288V20.5716H3.11156V19.4288H2.54013ZM4.23401 17.7145C3.28855 17.7145 2.54013 18.4921 2.54013 19.4288H3.11156C3.11156 18.7973 3.61439 18.2859 4.23401 18.2859V17.7145ZM6.47891 17.7145H4.23401V18.2859H6.47891V17.7145ZM8.17278 19.4288C8.17278 18.4921 7.42437 17.7145 6.47891 17.7145V18.2859C7.09853 18.2859 7.60136 18.7973 7.60136 19.4288H8.17278ZM8.17278 20.5716V19.4288H7.60136V20.5716H8.17278ZM7.60136 21.1431C7.91695 21.1431 8.17278 20.8872 8.17278 20.5716H7.60136L7.60136 20.5716V21.1431ZM7.02993 20.5716C7.02993 20.8872 7.28577 21.1431 7.60136 21.1431V20.5716L7.60136 20.5716H7.02993ZM7.02993 19.4288V20.5716H7.60136V19.4288H7.02993ZM6.47891 18.8574C6.77405 18.8574 7.02993 19.1039 7.02993 19.4288H7.60136C7.60136 18.7971 7.09833 18.2859 6.47891 18.2859V18.8574ZM4.23401 18.8574H6.47891V18.2859H4.23401V18.8574Z" fill="#F45F30"/>
</svg>
