<svg preserveAspectRatio="none" width="10" height="5" viewBox="0 0 10 5" fill="none" xmlns="http://www.w3.org/2000/svg">
<path fill-rule="evenodd" clip-rule="evenodd" d="M8.91314 4.74586C8.75718 4.90177 8.54568 4.98936 8.32516 4.98936C8.10463 4.98936 7.89313 4.90177 7.73717 4.74586L4.99852 2.0072L2.25986 4.74586C2.18314 4.82529 2.09138 4.88865 1.98991 4.93224C1.88844 4.97582 1.77931 4.99876 1.66889 4.99972C1.55846 5.00068 1.44895 4.97964 1.34674 4.93782C1.24453 4.89601 1.15167 4.83425 1.07359 4.75617C0.995501 4.67808 0.933748 4.58522 0.891931 4.48302C0.850115 4.38081 0.829072 4.2713 0.830031 4.16087C0.830991 4.05044 0.853933 3.94131 0.89752 3.83985C0.941106 3.73838 1.00446 3.64661 1.0839 3.56989L4.41054 0.243255C4.56649 0.0873425 4.77799 -0.00024416 4.99852 -0.000244141C5.21904 -0.000244121 5.43054 0.0873426 5.5865 0.243255L8.91314 3.56989C9.06905 3.72585 9.15664 3.93735 9.15664 4.15788C9.15664 4.3784 9.06905 4.5899 8.91314 4.74586Z" fill="#3F3F46"/>
</svg>
