<svg preserveAspectRatio="none" width="10" height="5" viewBox="0 0 10 5" fill="none" xmlns="http://www.w3.org/2000/svg">
<path fill-rule="evenodd" clip-rule="evenodd" d="M1.0735 0.253896C1.22946 0.0979839 1.44096 0.0103972 1.66148 0.0103972C1.88201 0.0103972 2.09351 0.0979839 2.24947 0.253896L4.98812 2.99255L7.72678 0.253896C7.80349 0.174464 7.89526 0.111106 7.99673 0.0675198C8.09819 0.0239334 8.20733 0.000990984 8.31775 3.1401e-05C8.42818 -0.000928181 8.53769 0.020114 8.6399 0.0619306C8.74211 0.103747 8.83496 0.165501 8.91305 0.243587C8.99114 0.321674 9.05289 0.414531 9.09471 0.516739C9.13652 0.618946 9.15757 0.728459 9.15661 0.838886C9.15565 0.949314 9.13271 1.05844 9.08912 1.15991C9.04553 1.26138 8.98217 1.35314 8.90274 1.42986L5.5761 4.7565C5.42014 4.91241 5.20865 5 4.98812 5C4.76759 5 4.5561 4.91241 4.40014 4.7565L1.0735 1.42986C0.917587 1.2739 0.83 1.06241 0.83 0.841879C0.83 0.621353 0.917587 0.409855 1.0735 0.253896Z" fill="#3F3F46"/>
</svg>
