<svg width="35" height="39" viewBox="0 0 35 39" fill="none" xmlns="http://www.w3.org/2000/svg">
<path d="M29.2526 16.9209H5.91927C4.07832 16.9209 2.58594 18.4133 2.58594 20.2542V31.9209C2.58594 33.7618 4.07832 35.2542 5.91927 35.2542H29.2526C31.0936 35.2542 32.5859 33.7618 32.5859 31.9209V20.2542C32.5859 18.4133 31.0936 16.9209 29.2526 16.9209Z" stroke="white" stroke-width="3" stroke-linecap="round" stroke-linejoin="round"/>
<path d="M9.25293 16.9209V10.2542C9.25293 8.04409 10.1309 5.92448 11.6937 4.36168C13.2565 2.79887 15.3761 1.9209 17.5863 1.9209C19.7964 1.9209 21.916 2.79887 23.4788 4.36168C25.0416 5.92448 25.9196 8.04409 25.9196 10.2542V16.9209" stroke="white" stroke-width="3" stroke-linecap="round" stroke-linejoin="round"/>
</svg>
